<?xml version="1.0" encoding="UTF-8"?>
<svg width="24px" height="24px" viewBox="0 0 24 24" version="1.1" xmlns="http://www.w3.org/2000/svg" xmlns:xlink="http://www.w3.org/1999/xlink">
    <!-- Generator: Sketch 45.2 (43514) - http://www.bohemiancoding.com/sketch -->
    <title>Page 1</title>
    <desc>Created with Sketch.</desc>
    <defs></defs>
    <g id="Page-1" stroke="none" stroke-width="1" fill="none" fill-rule="evenodd">
        <g id="Ui-Detail" transform="translate(-883.000000, -664.000000)" fill="#FF3535">
            <g id="Group-14-Copy-2" transform="translate(622.000000, 651.000000)">
                <path d="M273,13 C269.699984,13 266.875011,14.1749888 264.524998,16.5249984 C262.174988,18.8750112 261,21.699984 261,25 C261,28.300016 262.174988,31.1249888 264.524998,33.4750016 C266.875011,35.8250118 269.699984,37 273,37 C276.300016,37 279.124989,35.8250118 281.475002,33.4750016 C283.825011,31.1249888 285,28.300016 285,25 C285,21.699984 283.825011,18.8750112 281.475002,16.5249984 C279.124989,14.1749888 276.300016,13 273,13 Z M273,35.4 C270.133318,35.4 267.683344,34.3833434 265.65,32.35 C263.616657,30.316656 262.6,27.8666816 262.6,25 C262.6,22.1333184 263.616657,19.683344 265.65,17.65 C267.683344,15.616656 270.133318,14.6 273,14.6 C275.866682,14.6 278.316656,15.616656 280.35,17.65 C282.383344,19.683344 283.4,22.1333184 283.4,25 C283.4,27.8666816 282.383344,30.316656 280.35,32.35 C278.316656,34.3833434 275.866682,35.4 273,35.4 Z M277.45,19.45 L273.05,23.85 L269.1,19.45 C268.699997,19.0499968 268.316669,19.041664 267.95,19.4249984 C267.583331,19.808336 267.583331,20.1833312 267.95,20.55 L271.9,24.95 L267.45,29.45 C267.083331,29.8166688 267.083331,30.191664 267.45,30.5750016 C267.816669,30.958336 268.183331,30.9500032 268.55,30.55 L272.95,26.15 L276.9,30.55 C277.300003,30.9500032 277.683331,30.958336 278.05,30.5750016 C278.416669,30.191664 278.416669,29.8166688 278.05,29.45 L274.1,25.05 L278.55,20.55 C278.950003,20.1833312 278.958336,19.808336 278.575002,19.4249984 C278.191664,19.041664 277.816669,19.0499968 277.45,19.45 Z" id="Page-1"></path>
            </g>
        </g>
    </g>
</svg>