<?xml version="1.0" encoding="UTF-8"?>
<svg width="483px" height="288px" viewBox="0 0 483 288" version="1.1" xmlns="http://www.w3.org/2000/svg" xmlns:xlink="http://www.w3.org/1999/xlink">
    <!-- Generator: Sketch 45.2 (43514) - http://www.bohemiancoding.com/sketch -->
    <title>Group 4</title>
    <desc>Created with Sketch.</desc>
    <defs></defs>
    <g id="Page-1" stroke="none" stroke-width="1" fill="none" fill-rule="evenodd">
        <g id="404" transform="translate(-266.000000, -181.000000)">
            <g id="Group-4" transform="translate(266.000000, 181.000000)">
                <path d="M231,288 C263.032515,288 289,284.418278 289,280 C289,275.581722 263.966844,272.373876 231,274.537938 C198.033156,276.702 173,275.581722 173,280 C173,284.418278 198.967485,288 231,288 Z" id="Oval-14" fill="#ECECEC"></path>
                <g id="graphic_404">
                    <path d="M124.556786,255.159512 C114.342857,253.842511 -8.37971424,241.97859 0.653963443,154.477922 C9.68724158,66.9775747 21.0266846,40.6632249 68.7393657,31.0360238 C116.452047,21.4088226 232.433521,-24.1464513 323.444327,19.1692147 C414.454734,62.4848808 512.662517,101.334488 473.691048,170.497264 C434.719579,239.659719 428.33887,262.730664 326.657456,259.200691 C224.976841,255.670717 173.125689,261.422649 124.556786,255.159512" id="Fill-116" fill="#E6F5FF" opacity="0.300000012"></path>
                    <path d="M137.379992,241.432746 C128.287769,240.26038 19.0427372,229.699369 27.0843256,151.808129 C35.1255583,73.9171744 45.2196901,50.492698 87.6925074,41.9227677 C130.165325,33.3528373 233.409574,-7.19950186 314.425465,31.3591858 C395.441,69.9178735 482.863487,104.500971 448.171911,166.068207 C413.480335,227.635158 407.800363,248.172425 317.285724,245.030117 C226.771796,241.887809 180.614999,247.008057 137.379992,241.432746" id="Fill-116" fill="#E6F5FF"></path>
                    <path d="M427.634282,108.363149 L304.836141,108.363149 C299.347233,108.363149 294.85634,103.872257 294.85634,98.3833487 C294.85634,92.8944404 299.347233,88.403548 304.836141,88.403548 L427.634282,88.403548 C433.12319,88.403548 437.610864,92.8944404 437.610864,98.3833487 C437.610864,103.872257 433.12319,108.363149 427.634282,108.363149" id="Fill-117" fill="#FFFFFF"></path>
                    <path d="M439.62406,81.5125545 L389.058163,81.5125545 C384.677764,81.5125545 381.094777,77.9306396 381.094777,73.552386 C381.094777,69.17449 384.677764,65.5922176 389.058163,65.5922176 L439.62406,65.5922176 C444.004459,65.5922176 447.587447,69.17449 447.587447,73.552386 C447.587447,77.9306396 444.004459,81.5125545 439.62406,81.5125545" id="Fill-118" fill="#FFFFFF"></path>
                    <path d="M449.089298,130.461458 L398.519825,130.461458 C394.139426,130.461458 390.560014,126.879543 390.560014,122.50129 C390.560014,118.123394 394.139426,114.541121 398.519825,114.541121 L449.089298,114.541121 C453.466121,114.541121 457.049109,118.123394 457.049109,122.50129 C457.049109,126.879543 453.466121,130.461458 449.089298,130.461458" id="Fill-119" fill="#FFFFFF"></path>
                    <path d="M422.524412,115.175117 C420.060661,115.175117 418.061769,113.650023 418.061769,111.769133 C418.061769,109.888243 420.060661,108.363149 422.524412,108.363149 L403.046834,108.363149 C405.514161,108.363149 407.513053,109.888243 407.513053,111.769133 C407.513053,113.650023 405.514161,115.175117 403.046834,115.175117 L422.524412,115.175117" id="Fill-120" fill="#FFFFFF"></path>
                    <path d="M428.832187,88.6227468 C426.261161,88.6227468 424.172873,87.0311422 424.172873,85.0676506 C424.172873,83.1041591 426.261161,81.5125545 428.832187,81.5125545 L408.503559,81.5125545 C411.074586,81.5125545 413.162874,83.1041591 413.162874,85.0676506 C413.162874,87.0311422 411.074586,88.6227468 408.503559,88.6227468 L428.832187,88.6227468" id="Fill-121" fill="#FFFFFF"></path>
                    <path d="M38.7238576,170.464693 L161.520211,170.464693 C167.009119,170.464693 171.500011,174.955585 171.500011,180.444493 C171.500011,185.933402 167.009119,190.424294 161.520211,190.424294 L38.7238576,190.424294 C33.2349494,190.424294 28.7440569,185.933402 28.7440569,180.444493 C28.7440569,174.955585 33.2349494,170.464693 38.7238576,170.464693" id="Fill-122" fill="#FFFFFF"></path>
                    <path d="M26.7308613,197.315288 L77.2999761,197.315288 C81.6778721,197.315288 85.2601446,200.897202 85.2601446,205.275456 C85.2601446,209.653352 81.6778721,213.235625 77.2999761,213.235625 L26.7308613,213.235625 C22.3526077,213.235625 18.7706928,209.653352 18.7706928,205.275456 C18.7706928,200.897202 22.3526077,197.315288 26.7308613,197.315288" id="Fill-123" fill="#FFFFFF"></path>
                    <path d="M17.2688417,148.366026 L67.8379566,148.366026 C72.2158526,148.366026 75.798125,151.948299 75.798125,156.326195 C75.798125,160.704448 72.2158526,164.286363 67.8379566,164.286363 L17.2688417,164.286363 C12.8905881,164.286363 9.30867323,160.704448 9.30867323,156.326195 C9.30867323,151.948299 12.8905881,148.366026 17.2688417,148.366026" id="Fill-124" fill="#FFFFFF"></path>
                    <path d="M43.8319393,163.652725 C46.2974782,163.652725 48.2960129,165.177819 48.2960129,167.058709 C48.2960129,168.939599 46.2974782,170.464693 43.8319393,170.464693 L63.3091603,170.464693 C60.8436214,170.464693 58.8450867,168.939599 58.8450867,167.058709 C58.8450867,165.177819 60.8436214,163.652725 63.3091603,163.652725 L43.8319393,163.652725" id="Fill-125" fill="#FFFFFF"></path>
                    <path d="M37.5227343,190.205095 C40.0962634,190.205095 42.1824061,191.7967 42.1824061,193.760191 C42.1824061,195.723683 40.0962634,197.315288 37.5227343,197.315288 L57.8535073,197.315288 C55.2803358,197.315288 53.1938355,195.723683 53.1938355,193.760191 C53.1938355,191.7967 55.2803358,190.205095 57.8535073,190.205095 L37.5227343,190.205095" id="Fill-126" fill="#FFFFFF"></path>
                    <path d="M161.415796,258.266842 C161.415796,261.727894 164.230337,264.533852 167.702473,264.533495 L295.803222,264.529919 C299.275001,264.529561 302.089541,261.72396 302.089541,258.262909 L302.088826,236.104168 L301.982981,223.891616 L301.979048,88.8730553 C301.97869,85.4120037 299.16415,82.6064027 295.692371,82.6064027 L194.889197,82.6092634 L161.41222,116.059421 L161.415796,258.266842 Z" id="Fill-127" fill="#FFFFFF"></path>
                    <path d="M161.441542,116.088743 L161.411505,116.089101 L161.4419,116.089101 L161.441542,116.088743 Z M162.126672,116.356573 L162.130963,258.2672 C162.130963,261.328115 164.630473,263.818328 167.702473,263.818328 L295.803222,263.814394 C298.874865,263.814394 301.374374,261.324182 301.374374,258.262909 L301.373659,236.104168 L301.267814,223.897695 L301.263881,88.8730553 C301.263523,85.8117821 298.764371,83.3215699 295.692371,83.3215699 L195.185276,83.3244306 L162.126672,116.356573 Z M167.702473,265.248662 C163.841643,265.248662 160.700629,262.116587 160.700629,258.2672 L160.696338,116.089101 C160.696338,116.083737 160.696338,116.078015 160.696696,116.072294 L160.697411,116.042615 C160.701702,115.858817 160.776794,115.683601 160.906597,115.553798 L194.383574,82.1036402 C194.517668,81.9695464 194.69932,81.8940962 194.889197,81.8940962 L295.692371,81.8912355 C299.552843,81.8912355 302.693858,85.0233103 302.694215,88.8730553 L302.698149,223.891616 L302.803993,236.098089 L302.804709,258.262909 C302.804709,262.113011 299.664052,265.244729 295.803222,265.244729 L167.702473,265.248662 L167.702473,265.248662 Z" id="Fill-128" fill="#76848D"></path>
                    <path d="M194.243043,84.3360346 L163.138276,115.442947 L188.35972,115.442232 C191.604434,115.441874 194.243758,112.802192 194.243758,109.557479 L194.243043,84.3360346 Z M161.411505,116.873281 C161.12222,116.873281 160.861542,116.698781 160.750691,116.431666 C160.640197,116.164551 160.701344,115.856671 160.905882,115.652491 L194.452587,82.1036402 C194.657125,81.8991024 194.964647,81.8379556 195.231762,81.9488065 C195.499234,82.0592998 195.673378,82.3199783 195.673378,82.6092634 L195.674093,109.557479 C195.674093,113.590664 192.392906,116.872209 188.35972,116.872566 L161.411505,116.873281 L161.411505,116.873281 Z" id="Fill-129" fill="#76848D"></path>
                    <path d="M259.864997,183.373818 L200.832236,183.373818 C200.23972,183.373818 199.759485,182.893941 199.759485,182.301067 C199.759485,181.708551 200.23972,181.228317 200.832236,181.228317 L259.864997,181.228317 C260.457513,181.228317 260.937748,181.708551 260.937748,182.301067 C260.937748,182.893941 260.457513,183.373818 259.864997,183.373818" id="Fill-130" fill="#ECECEC"></path>
                    <path d="M285.904593,222.120862 L174.792641,222.120862 C174.397511,222.120862 174.077474,221.800467 174.077474,221.405695 C174.077474,221.010565 174.397511,220.690527 174.792641,220.690527 L285.904593,220.690527 C286.299722,220.690527 286.61976,221.010565 286.61976,221.405695 C286.61976,221.800467 286.299722,222.120862 285.904593,222.120862" id="Fill-131" fill="#ECECEC"></path>
                    <path d="M285.904593,206.479082 L174.792641,206.479082 C174.397511,206.479082 174.077474,206.158688 174.077474,205.763915 C174.077474,205.368785 174.397511,205.048748 174.792641,205.048748 L285.904593,205.048748 C286.299722,205.048748 286.61976,205.368785 286.61976,205.763915 C286.61976,206.158688 286.299722,206.479082 285.904593,206.479082" id="Fill-132" fill="#ECECEC"></path>
                    <path d="M230.766274,237.762641 L174.792641,237.762641 C174.397511,237.762641 174.077474,237.442246 174.077474,237.047474 C174.077474,236.652344 174.397511,236.332307 174.792641,236.332307 L230.766274,236.332307 C231.161047,236.332307 231.481442,236.652344 231.481442,237.047474 C231.481442,237.442246 231.161047,237.762641 230.766274,237.762641" id="Fill-133" fill="#ECECEC"></path>
                    <path d="M209.837979,150.780788 C209.656327,150.780788 209.474674,150.712132 209.335574,150.574463 C209.054156,150.296978 209.051653,149.844277 209.329138,149.563216 C209.672776,149.21493 217.907211,141.038066 231.813279,141.038066 C245.704687,141.038066 253.807531,148.514066 254.145448,148.832315 C254.432945,149.102649 254.446533,149.554634 254.176557,149.842489 C253.906224,150.130344 253.453881,150.144647 253.165669,149.874314 C253.086643,149.800294 245.112171,142.4684 231.813279,142.4684 C218.499369,142.4684 210.426919,150.487212 210.346821,150.568026 C210.207005,150.709629 210.022492,150.780788 209.837979,150.780788" id="Fill-134" fill="#FF6C00"></path>
                    <path d="M206.419122,131.957588 C206.419122,130.180397 204.978418,128.739335 203.20087,128.739335 C201.42368,128.739335 199.982618,130.180397 199.982618,131.957588 C199.982618,133.735136 201.42368,135.17584 203.20087,135.17584 C204.978418,135.17584 206.419122,133.735136 206.419122,131.957588" id="Fill-135" fill="#FF6C00"></path>
                    <path d="M262.641276,131.957588 C262.641276,130.180397 261.200572,128.739335 259.423024,128.739335 C257.645834,128.739335 256.204772,130.180397 256.204772,131.957588 C256.204772,133.735136 257.645834,135.17584 259.423024,135.17584 C261.200572,135.17584 262.641276,133.735136 262.641276,131.957588" id="Fill-136" fill="#FF6C00"></path>
                    <path d="M223.296711,59.4224702 L129.03231,70.6763412 C125.649927,71.080053 122.58043,68.665291 122.176718,65.2829078 L116.899499,21.0798537 C116.49543,17.6974704 118.910192,14.6279728 122.292575,14.2242609 L216.556975,2.97038995 C219.939358,2.56667807 223.008856,4.98108252 223.412568,8.36382336 L228.689786,52.5668774 C229.093856,55.9492607 226.679094,59.0187583 223.296711,59.4224702" id="Fill-137" fill="#FFFFFF"></path>
                    <path d="M226.872547,62.9983061 L132.608146,74.2521771 C129.225763,74.655889 126.156266,72.241127 125.752554,68.8587437 L120.475335,24.6556897 C120.071265,21.2733064 122.486028,18.2038088 125.868411,17.8000969 L220.132811,6.54622593 C223.515194,6.14251405 226.584692,8.5569185 226.988404,11.9396593 L232.265622,56.1427134 C232.669692,59.5250967 230.25493,62.5945943 226.872547,62.9983061" id="Fill-138" fill="#FFFFFF"></path>
                    <path d="M217.292167,3.64157436 C217.077259,3.64157436 216.860563,3.65444737 216.641722,3.68055097 L122.377322,14.934422 C120.931254,15.1067773 119.638947,15.8323144 118.738194,16.9772971 C117.837798,18.1219222 117.436947,19.5490383 117.609302,20.9951064 L122.886521,65.1981604 C123.243032,68.1836259 125.962098,70.3223334 128.947563,69.9661801 L223.211606,58.7123091 L223.296711,59.4224702 L223.211606,58.7123091 C224.658031,58.5395963 225.950339,57.8144167 226.851092,56.669434 C227.751487,55.5248089 228.152338,54.0976928 227.979625,52.6516247 L222.702407,8.44857067 C222.372357,5.68158879 220.012305,3.64157436 217.292167,3.64157436 Z M128.296046,71.4354911 C124.861813,71.4354911 121.883499,68.8605316 121.466557,65.3680126 L116.189338,21.164601 C115.971212,19.3391367 116.477193,17.5379882 117.613951,16.0929928 C118.750709,14.6479975 120.382363,13.7318683 122.207827,13.5140999 L216.472228,2.26022892 C220.242232,1.80967359 223.672889,4.51050251 224.122729,8.27871846 L229.399948,52.4817725 C229.618074,54.3075944 229.112093,56.108743 227.975334,57.5537383 C226.838219,58.9987336 225.206922,59.9148628 223.381458,60.1326312 L129.117058,71.3865022 C128.841361,71.4193999 128.567094,71.4354911 128.296046,71.4354911 L128.296046,71.4354911 Z" id="Fill-139" fill="#76848D"></path>
                    <path d="M136.138173,44.4624099 L146.525977,43.22231 L144.85034,29.1864386 L136.138173,44.4624099 Z M147.708506,53.1270181 L147.17213,48.6336226 L135.044683,50.0814786 C133.514225,50.2642038 132.325617,50.0550174 131.477786,49.4539193 C130.629956,48.8524637 130.135775,47.9560017 129.993099,46.7641755 C129.956983,46.4584415 129.975578,46.1412649 130.051028,45.8140759 C130.12612,45.4865293 130.255565,45.1360974 130.440079,44.7627801 C130.624234,44.3898204 130.818044,44.0279458 131.021152,43.6767987 C131.224259,43.3256516 131.474926,42.8958362 131.773865,42.3862795 L142.532483,23.7293553 C143.235135,22.502486 143.826221,21.6028056 144.305383,21.0310295 C144.784187,20.4592533 145.402092,20.1281309 146.159096,20.0376622 C148.607471,19.7451588 149.998471,21.0002773 150.333169,23.8026599 L152.565564,42.5010639 L153.603987,42.3769824 C154.844086,42.2289427 155.858909,42.2797196 156.648453,42.5282402 C157.43764,42.7771184 157.900353,43.4733337 158.03695,44.616886 C158.148516,45.5508944 157.923596,46.2678495 157.362548,46.7677514 C156.801499,47.2676532 155.90897,47.5905512 154.685319,47.7368029 L153.211717,47.912734 L153.748093,52.4057719 C153.896132,53.646587 153.732001,54.6009777 153.256773,55.2703741 C152.781187,55.9397706 152.084614,56.3291792 151.166697,56.4385998 C150.264513,56.5462324 149.498927,56.3227427 148.869222,55.7695609 C148.23916,55.2160214 147.852612,54.3349355 147.708506,53.1270181 L147.708506,53.1270181 Z" id="Fill-140" fill="#FEF0E4"></path>
                    <path d="M178.381844,34.7238478 C178.03034,31.7766438 177.565123,29.3858399 176.986911,27.5517936 C176.40834,25.7181049 175.643112,24.3718027 174.691582,23.513602 C173.739694,22.6554014 172.52248,22.3146242 171.041011,22.4912705 C168.915534,22.7451549 167.565298,23.9927641 166.991734,26.2337405 C166.417812,28.4747169 166.39743,31.8259904 166.93023,36.2868457 C167.291389,39.3148637 167.76483,41.7739661 168.349479,43.6645105 C168.934486,45.5546974 169.705078,46.9449825 170.660899,47.8353656 C171.616363,48.7261064 172.81105,49.0854779 174.244602,48.9145529 C175.726071,48.737549 176.82421,48.0838862 177.53902,46.9532069 C178.253114,45.8225276 178.665051,44.2788392 178.774829,42.3217841 C178.883892,40.3647291 178.753016,37.8323221 178.381844,34.7238478 Z M185.059003,34.4166835 C185.374392,37.0581536 185.48417,39.3481189 185.38941,41.2869372 C185.293578,43.226113 184.903454,45.02011 184.218681,46.6703583 C183.350468,48.7017907 182.108223,50.3363053 180.491945,51.5746173 C178.87531,52.8129293 177.004432,53.5592063 174.87824,53.8130906 C172.430223,54.1052364 170.153131,53.6747058 168.047321,52.5211411 C165.940796,51.367934 164.250856,49.6261443 162.97607,47.2950568 C162.317044,46.0181258 161.774232,44.583858 161.347635,42.9933261 C160.92068,41.4027943 160.595279,39.664938 160.370001,37.78083 C160.080001,35.348904 159.94698,33.1429707 159.972726,31.1633879 C159.997041,29.1841627 160.199791,27.4609674 160.58026,25.9941595 C161.25359,23.5618758 162.423604,21.6298516 164.090301,20.1970142 C165.756998,18.7652494 167.846359,17.8988244 170.359099,17.5988117 C172.017571,17.4007104 173.555896,17.4908215 174.973,17.8687874 C176.390461,18.2467532 177.672399,18.8939795 178.819527,19.8108239 C179.96594,20.7276682 180.984695,21.9087668 181.876509,23.3537622 C183.417337,25.8654294 184.478287,29.5528314 185.059003,34.4166835 L185.059003,34.4166835 Z" id="Fill-141" fill="#FEF0E4"></path>
                    <path d="M194.460132,37.7969271 L204.848293,36.5564696 L203.172657,22.5205982 L194.460132,37.7969271 Z M206.030822,46.4615352 L205.494447,41.9681398 L193.366642,43.4159957 C191.836541,43.598721 190.647934,43.3895346 189.80046,42.7880789 C188.95263,42.1869809 188.457734,41.2905188 188.315416,40.0986927 C188.278942,39.7929587 188.298252,39.4757821 188.373702,39.1482355 C188.448437,38.8206889 188.57824,38.4706146 188.762753,38.0972973 C188.946551,37.7243376 189.140361,37.362463 189.343469,37.0109583 C189.546576,36.6601688 189.796885,36.2303533 190.095824,35.7207967 L200.8548,17.0638725 C201.557452,15.8370032 202.148537,14.9373228 202.627699,14.3651891 C203.106504,13.7937705 203.724408,13.4622905 204.481413,13.3721794 C206.92943,13.0800336 208.321145,14.3347945 208.655486,17.1371771 L210.88788,35.835581 L211.926661,35.7118571 C213.166761,35.5638175 214.181583,35.6142368 214.97077,35.8627574 C215.759957,36.1116356 216.223028,36.8078508 216.359267,37.9514032 C216.470833,38.8857691 216.245913,39.6023667 215.685222,40.1022685 C215.123458,40.6021704 214.230929,40.9250684 213.007278,41.0709625 L211.533676,41.2472512 L212.070052,45.7406467 C212.218091,46.9811042 212.054318,47.9354948 211.578732,48.6048913 C211.103503,49.2739302 210.40693,49.6636964 209.488656,49.7731169 C208.586472,49.8811072 207.820886,49.6576174 207.191539,49.104078 C206.561834,48.5505386 206.174929,47.6694526 206.030822,46.4615352 L206.030822,46.4615352 Z" id="Fill-142" fill="#FEF0E4"></path>
                    <path d="M138.637698,46.1287598 L149.025502,44.8886599 L147.349865,30.8527885 L138.637698,46.1287598 Z M150.208031,54.793368 L149.671655,50.2999725 L137.544208,51.7478285 C136.01375,51.9305537 134.825142,51.7213673 133.977311,51.1202693 C133.12948,50.5188137 132.6353,49.6223516 132.492624,48.4305254 C132.456508,48.1247915 132.475102,47.8076148 132.550553,47.4804258 C132.625645,47.1528793 132.75509,46.8024473 132.939604,46.4291301 C133.123759,46.0561704 133.317569,45.6942958 133.520677,45.3431487 C133.723784,44.9920016 133.97445,44.5621861 134.27339,44.0526295 L145.032008,25.3957052 C145.73466,24.1688359 146.325746,23.2691556 146.804908,22.6973794 C147.283712,22.1256032 147.901616,21.7944808 148.658621,21.7040122 C151.106996,21.4115088 152.497996,22.6666272 152.832694,25.4690099 L155.065089,44.1674138 L156.103511,44.0433323 C157.343611,43.8952927 158.358434,43.9460695 159.147978,44.1945901 C159.937165,44.4434683 160.399878,45.1396836 160.536475,46.2832359 C160.648041,47.2172443 160.423121,47.9341994 159.862073,48.4341013 C159.301024,48.9340032 158.408495,49.2569011 157.184844,49.4031528 L155.711242,49.579084 L156.247618,54.0721219 C156.395657,55.312937 156.231526,56.2673276 155.756298,56.9367241 C155.280712,57.6061206 154.584139,57.9955291 153.666222,58.1049497 C152.764038,58.2125824 151.998452,57.9890926 151.368747,57.4359108 C150.738685,56.8823714 150.352137,56.0012854 150.208031,54.793368 L150.208031,54.793368 Z" id="Fill-140-Copy" stroke="#FF6C00"></path>
                    <path d="M180.881369,35.5570228 C180.529865,32.6098188 180.064648,30.2190148 179.486436,28.3849686 C178.907865,26.5512799 178.142636,25.2049776 177.191107,24.346777 C176.239219,23.4885764 175.022004,23.1477992 173.540536,23.3244455 C171.415059,23.5783298 170.064823,24.825939 169.491259,27.0669154 C168.917337,29.3078918 168.896955,32.6591653 169.429755,37.1200207 C169.790914,40.1480386 170.264355,42.607141 170.849004,44.4976855 C171.434011,46.3878724 172.204603,47.7781574 173.160424,48.6685406 C174.115888,49.5592813 175.310574,49.9186529 176.744127,49.7477279 C178.225596,49.570724 179.323735,48.9170612 180.038545,47.7863819 C180.752639,46.6557025 181.164575,45.1120141 181.274354,43.1549591 C181.383417,41.1979041 181.252541,38.665497 180.881369,35.5570228 Z M187.558528,35.2498585 C187.873917,37.8913285 187.983695,40.1812939 187.888935,42.1201122 C187.793103,44.059288 187.402979,45.8532849 186.718206,47.5035332 C185.849993,49.5349657 184.607748,51.1694803 182.99147,52.4077923 C181.374835,53.6461043 179.503957,54.3923812 177.377765,54.6462656 C174.929748,54.9384114 172.652656,54.5078807 170.546846,53.3543161 C168.440321,52.201109 166.750381,50.4593193 165.475595,48.1282318 C164.816569,46.8513007 164.273757,45.4170329 163.847159,43.8265011 C163.420205,42.2359692 163.094804,40.498113 162.869526,38.614005 C162.579526,36.1820789 162.446504,33.9761457 162.47225,31.9965629 C162.496566,30.0173377 162.699316,28.2941423 163.079785,26.8273344 C163.753115,24.3950508 164.923128,22.4630266 166.589826,21.0301891 C168.256523,19.5984244 170.345884,18.7319993 172.858624,18.4319867 C174.517096,18.2338854 176.055421,18.3239965 177.472525,18.7019623 C178.889986,19.0799282 180.171923,19.7271545 181.319052,20.6439988 C182.465465,21.5608432 183.48422,22.7419418 184.376034,24.1869371 C185.916861,26.6986043 186.977812,30.3860064 187.558528,35.2498585 L187.558528,35.2498585 Z" id="Fill-141-Copy" stroke="#FF6C00"></path>
                    <path d="M196.959657,38.630102 L207.347818,37.3896445 L205.672182,23.3537732 L196.959657,38.630102 Z M208.530347,47.2947102 L207.993972,42.8013147 L195.866167,44.2491707 C194.336066,44.4318959 193.147458,44.2227095 192.299985,43.6212539 C191.452155,43.0201559 190.957259,42.1236938 190.814941,40.9318677 C190.778467,40.6261337 190.797777,40.308957 190.873227,39.9814105 C190.947962,39.6538639 191.077765,39.3037895 191.262278,38.9304723 C191.446076,38.5575126 191.639886,38.195638 191.842993,37.8441333 C192.046101,37.4933438 192.29641,37.0635283 192.595349,36.5539717 L203.354325,17.8970474 C204.056976,16.6701781 204.648062,15.7704978 205.127224,15.198364 C205.606029,14.6269454 206.223933,14.2954654 206.980938,14.2053544 C209.428955,13.9132086 210.82067,15.1679694 211.155011,17.9703521 L213.387405,36.668756 L214.426186,36.5450321 C215.666286,36.3969925 216.681108,36.4474118 217.470295,36.6959324 C218.259482,36.9448105 218.722553,37.6410258 218.858792,38.7845782 C218.970358,39.7189441 218.745438,40.4355416 218.184747,40.9354435 C217.622983,41.4353454 216.730454,41.7582434 215.506803,41.9041375 L214.033201,42.0804262 L214.569577,46.5738217 C214.717616,47.8142792 214.553843,48.7686698 214.078257,49.4380663 C213.603028,50.1071052 212.906455,50.4968713 211.988181,50.6062919 C211.085997,50.7142822 210.320411,50.4907924 209.691064,49.937253 C209.061359,49.3837136 208.674453,48.5026276 208.530347,47.2947102 L208.530347,47.2947102 Z" id="Fill-142-Copy" stroke="#FF6C00"></path>
                    <path d="M328.50746,175.11328 C328.480284,175.11328 328.453107,175.111849 328.425931,175.108631 C316.127558,173.719419 309.469352,168.05887 306.04978,163.55439 C302.42567,158.781364 301.303573,153.830619 301.305003,152.566919 C301.30536,152.172146 301.625755,151.852467 302.02017,151.852467 C302.020528,151.852467 302.020528,151.852467 302.020885,151.852467 C302.416015,151.852824 302.735695,152.173577 302.735337,152.568349 C302.734622,153.229163 303.553131,157.900635 307.188683,162.689753 C310.439476,166.971459 316.790518,172.35488 328.586486,173.687236 C328.979113,173.731577 329.261246,174.085942 329.216906,174.478211 C329.175784,174.843662 328.866474,175.11328 328.50746,175.11328" id="Fill-143" fill="#76848D"></path>
                    <path d="M161.411863,154.082 C161.403996,154.082 161.395772,154.082 161.38719,154.081643 C160.547583,154.053394 155.82891,153.25777 149.706721,150.113537 C144.324373,147.349059 136.483637,142.020348 129.694913,132.333051 C129.468205,132.009795 129.546873,131.563888 129.870129,131.33718 C130.193742,131.109757 130.639291,131.188783 130.866357,131.512396 C144.222462,150.571244 161.274193,152.64666 161.435821,152.652023 C161.830236,152.665612 162.139545,152.996376 162.126315,153.391149 C162.113442,153.777697 161.795908,154.082 161.411863,154.082" id="Fill-144" fill="#76848D"></path>
                    <path d="M132.276666,152.958115 C131.918725,152.958115 131.609773,152.690285 131.567221,152.326265 L120.422055,57.0384603 C120.375927,56.6458335 120.65663,56.290753 121.049257,56.2449823 C121.441526,56.1992116 121.796606,56.4799147 121.842377,56.8721839 L132.9879,152.159988 C133.033671,152.552258 132.752968,152.907338 132.360699,152.953466 C132.332449,152.956685 132.304558,152.958115 132.276666,152.958115" id="Fill-145" fill="#76848D"></path>
                    <path d="M225.909932,280.239282 C225.515159,280.239282 225.194764,279.919244 225.194764,279.524114 L225.194764,264.533495 C225.194764,264.138722 225.515159,263.818328 225.909932,263.818328 C226.305061,263.818328 226.625099,264.138722 226.625099,264.533495 L226.625099,279.524114 C226.625099,279.919244 226.305061,280.239282 225.909932,280.239282" id="Fill-146" fill="#76848D"></path>
                    <path d="M237.591115,280.239282 C237.195985,280.239282 236.875948,279.919244 236.875948,279.524114 L236.875948,264.533495 C236.875948,264.138722 237.195985,263.818328 237.591115,263.818328 C237.985887,263.818328 238.306282,264.138722 238.306282,264.533495 L238.306282,279.524114 C238.306282,279.919244 237.985887,280.239282 237.591115,280.239282" id="Fill-147" fill="#76848D"></path>
                </g>
            </g>
        </g>
    </g>
</svg>