<?xml version="1.0" encoding="UTF-8"?>
<svg width="24px" height="24px" viewBox="0 0 24 24" version="1.1" xmlns="http://www.w3.org/2000/svg" xmlns:xlink="http://www.w3.org/1999/xlink">
    <!-- Generator: Sketch 45.2 (43514) - http://www.bohemiancoding.com/sketch -->
    <title>Page 1</title>
    <desc>Created with Sketch.</desc>
    <defs></defs>
    <g id="Page-1" stroke="none" stroke-width="1" fill="none" fill-rule="evenodd">
        <g id="Extensions-Details" transform="translate(-629.000000, -4049.000000)" fill="#FF3535">
            <g id="Group-48-Copy-3" transform="translate(230.000000, 4031.000000)">
                <path d="M411,18 C407.699984,18 404.875011,19.1749888 402.524998,21.5249984 C400.174988,23.8750112 399,26.699984 399,30 C399,33.300016 400.174988,36.1249888 402.524998,38.4750016 C404.875011,40.8250118 407.699984,42 411,42 C414.300016,42 417.124989,40.8250118 419.475002,38.4750016 C421.825011,36.1249888 423,33.300016 423,30 C423,26.699984 421.825011,23.8750112 419.475002,21.5249984 C417.124989,19.1749888 414.300016,18 411,18 Z M411,40.4 C408.133318,40.4 405.683344,39.3833434 403.65,37.35 C401.616657,35.316656 400.6,32.8666816 400.6,30 C400.6,27.1333184 401.616657,24.683344 403.65,22.65 C405.683344,20.616656 408.133318,19.6 411,19.6 C413.866682,19.6 416.316656,20.616656 418.35,22.65 C420.383344,24.683344 421.4,27.1333184 421.4,30 C421.4,32.8666816 420.383344,35.316656 418.35,37.35 C416.316656,39.3833434 413.866682,40.4 411,40.4 Z M415.45,24.45 L411.05,28.85 L407.1,24.45 C406.699997,24.0499968 406.316669,24.041664 405.95,24.4249984 C405.583331,24.808336 405.583331,25.1833312 405.95,25.55 L409.9,29.95 L405.45,34.45 C405.083331,34.8166688 405.083331,35.191664 405.45,35.5750016 C405.816669,35.958336 406.183331,35.9500032 406.55,35.55 L410.95,31.15 L414.9,35.55 C415.300003,35.9500032 415.683331,35.958336 416.05,35.5750016 C416.416669,35.191664 416.416669,34.8166688 416.05,34.45 L412.1,30.05 L416.55,25.55 C416.950003,25.1833312 416.958336,24.808336 416.575002,24.4249984 C416.191664,24.041664 415.816669,24.0499968 415.45,24.45 Z" id="Page-1"></path>
            </g>
        </g>
    </g>
</svg>