<?xml version="1.0" encoding="UTF-8"?>
<svg width="53px" height="45px" viewBox="0 0 53 45" version="1.1" xmlns="http://www.w3.org/2000/svg" xmlns:xlink="http://www.w3.org/1999/xlink">
    <!-- Generator: Sketch 45.2 (43514) - http://www.bohemiancoding.com/sketch -->
    <title>Configuration Videos</title>
    <desc>Created with Sketch.</desc>
    <defs></defs>
    <g id="Page-1" stroke="none" stroke-width="1" fill="none" fill-rule="evenodd">
        <g id="Packages" transform="translate(-1170.000000, -400.000000)" fill-rule="nonzero">
            <g id="Configuration-Videos" transform="translate(1170.000000, 400.000000)">
                <g id="Group" transform="translate(32.000000, 24.000000)" fill="#344154">
                    <path d="M10.516857,17.033714 C6.93258565,17.033714 4,14.1011284 4,10.516857 C4,6.93258565 6.93258565,4 10.516857,4 C14.1011284,4 17.033714,6.93258565 17.033714,10.516857 C17.033714,14.1011284 14.1011284,17.033714 10.516857,17.033714 Z M10.5,5 C7.43269231,5 5,7.43269231 5,10.5 C5,13.5673077 7.43269231,16 10.5,16 C13.5673077,16 16,13.5673077 16,10.5 C16,7.43269231 13.5673077,5 10.5,5 Z" id="Shape"></path>
                    <path d="M11.1408451,21 L9.85915493,21 C9.07042254,21 8.47887324,20.4084507 8.47887324,19.6197183 C8.47887324,19.3239437 8.28169014,19.028169 7.98591549,19.028169 C7.3943662,18.8309859 6.8028169,18.6338028 6.21126761,18.3380282 C5.91549296,18.2394366 5.61971831,18.2394366 5.42253521,18.4366197 C5.42253521,18.4366197 5.42253521,18.4366197 5.42253521,18.4366197 C4.92957746,18.9295775 3.94366197,18.9295775 3.45070423,18.4366197 L2.56338028,17.5492958 C1.97183099,16.9577465 1.97183099,16.0704225 2.56338028,15.5774648 C2.76056338,15.3802817 2.85915493,15.084507 2.66197183,14.7887324 C2.36619718,14.1971831 2.07042254,13.6056338 1.97183099,13.0140845 C1.87323944,12.7183099 1.67605634,12.5211268 1.38028169,12.5211268 C0.591549296,12.5211268 0,11.9295775 0,11.1408451 L0,9.85915493 C0,9.07042254 0.591549296,8.47887324 1.38028169,8.47887324 C1.67605634,8.47887324 1.97183099,8.28169014 1.97183099,7.98591549 C2.16901408,7.3943662 2.36619718,6.8028169 2.66197183,6.21126761 C2.76056338,5.91549296 2.76056338,5.61971831 2.56338028,5.42253521 C2.56338028,5.42253521 2.56338028,5.42253521 2.56338028,5.42253521 C2.26760563,5.12676056 2.16901408,4.83098592 2.16901408,4.43661972 C2.16901408,4.04225352 2.36619718,3.64788732 2.56338028,3.45070423 L3.45070423,2.56338028 C3.94366197,2.07042254 4.92957746,2.07042254 5.42253521,2.56338028 C5.61971831,2.76056338 5.91549296,2.85915493 6.21126761,2.66197183 C6.8028169,2.36619718 7.3943662,2.07042254 7.98591549,1.97183099 C8.28169014,1.87323944 8.47887324,1.67605634 8.47887324,1.38028169 C8.47887324,0.591549296 9.07042254,0 9.85915493,0 L11.1408451,0 C11.9295775,0 12.5211268,0.591549296 12.5211268,1.38028169 C12.5211268,1.67605634 12.7183099,1.97183099 13.0140845,1.97183099 C13.6056338,2.16901408 14.1971831,2.36619718 14.7887324,2.66197183 C15.084507,2.76056338 15.3802817,2.76056338 15.5774648,2.56338028 C15.8732394,2.26760563 16.1690141,2.16901408 16.5633803,2.16901408 C16.5633803,2.16901408 16.5633803,2.16901408 16.5633803,2.16901408 C16.9577465,2.16901408 17.2535211,2.36619718 17.5492958,2.56338028 L18.4366197,3.45070423 C18.7323944,3.74647887 18.8309859,4.04225352 18.8309859,4.43661972 C18.8309859,4.83098592 18.6338028,5.12676056 18.4366197,5.42253521 C18.2394366,5.61971831 18.1408451,5.91549296 18.3380282,6.21126761 C18.6338028,6.8028169 18.9295775,7.3943662 19.028169,7.98591549 C19.1267606,8.28169014 19.3239437,8.47887324 19.6197183,8.47887324 C20.4084507,8.47887324 21,9.07042254 21,9.85915493 L21,11.1408451 C21,11.9295775 20.4084507,12.5211268 19.6197183,12.5211268 C19.3239437,12.5211268 19.028169,12.7183099 19.028169,13.0140845 C18.8309859,13.6056338 18.6338028,14.1971831 18.3380282,14.7887324 C18.2394366,15.084507 18.2394366,15.3802817 18.4366197,15.5774648 C18.4366197,15.5774648 18.4366197,15.5774648 18.4366197,15.5774648 C19.028169,16.1690141 18.9295775,17.056338 18.4366197,17.5492958 L17.5492958,18.4366197 C16.9577465,19.028169 16.0704225,19.028169 15.5774648,18.4366197 C15.5774648,18.4366197 15.5774648,18.4366197 15.5774648,18.4366197 C15.3802817,18.2394366 15.084507,18.2394366 14.7887324,18.3380282 C14.1971831,18.6338028 13.6056338,18.9295775 13.0140845,19.028169 C12.7183099,19.1267606 12.5211268,19.3239437 12.5211268,19.6197183 C12.5211268,20.3098592 11.9295775,21 11.1408451,21 Z M6.24137931,17.1782178 C6.42857143,17.1782178 6.70935961,17.2722772 6.89655172,17.3663366 C7.36453202,17.6485149 7.92610837,17.8366337 8.39408867,18.0247525 C8.95566502,18.2128713 9.33004926,18.6831683 9.33004926,19.3415842 C9.33004926,19.7178218 9.61083744,20 9.98522167,20 L11.2019704,20 C11.5763547,20 11.8571429,19.7178218 11.8571429,19.3415842 C11.8571429,18.7772277 12.2315271,18.2128713 12.7931034,18.0247525 C13.3546798,17.8366337 13.8226601,17.6485149 14.2906404,17.3663366 C14.8522167,17.0841584 15.5073892,17.1782178 15.8817734,17.5544554 C15.8817734,17.5544554 15.8817734,17.5544554 15.8817734,17.5544554 C16.1625616,17.8366337 16.5369458,17.8366337 16.7241379,17.5544554 L17.5665025,16.7079208 C17.8472906,16.4257426 17.8472906,16.049505 17.5665025,15.7673267 C17.5665025,15.7673267 17.5665025,15.7673267 17.5665025,15.7673267 C17.1921182,15.2970297 17.0985222,14.7326733 17.3793103,14.1683168 C17.6600985,13.6980198 17.8472906,13.1336634 18.0344828,12.6633663 C18.2216749,12.0990099 18.6896552,11.7227723 19.3448276,11.7227723 C19.7192118,11.7227723 20,11.4405941 20,11.0643564 L20,9.84158416 C20,9.46534653 19.7192118,9.18316832 19.3448276,9.18316832 C18.7832512,9.18316832 18.2216749,8.80693069 18.0344828,8.24257426 C17.8472906,7.67821782 17.6600985,7.20792079 17.3793103,6.73762376 C17.0985222,6.17326733 17.1921182,5.51485149 17.5665025,5.13861386 C17.6600985,5.04455446 17.7536946,4.85643564 17.7536946,4.66831683 C17.7536946,4.48019802 17.6600985,4.38613861 17.5665025,4.1980198 L16.7241379,3.35148515 C16.4433498,3.06930693 16.0689655,3.06930693 15.7881773,3.35148515 C15.320197,3.82178218 14.6650246,3.91584158 14.1970443,3.63366337 C13.729064,3.35148515 13.1674877,3.16336634 12.6995074,2.97524752 C12.137931,2.78712871 11.7635468,2.31683168 11.7635468,1.65841584 C11.7635468,1.28217822 11.4827586,1 11.1083744,1 L9.89162562,1 C9.51724138,1 9.2364532,1.28217822 9.2364532,1.65841584 C9.2364532,2.22277228 8.86206897,2.78712871 8.30049261,2.97524752 C7.73891626,3.16336634 7.27093596,3.35148515 6.80295567,3.63366337 C6.24137931,3.91584158 5.5862069,3.82178218 5.21182266,3.44554455 C4.93103448,3.16336634 4.55665025,3.16336634 4.27586207,3.44554455 L3.43349754,4.29207921 C3.15270936,4.57425743 3.15270936,4.95049505 3.43349754,5.13861386 C3.43349754,5.13861386 3.43349754,5.13861386 3.43349754,5.13861386 C3.90147783,5.60891089 3.99507389,6.26732673 3.62068966,6.73762376 C3.33990148,7.20792079 3.15270936,7.77227723 2.96551724,8.24257426 C2.77832512,8.80693069 2.31034483,9.18316832 1.65517241,9.18316832 C1.28078818,9.18316832 1,9.46534653 1,9.84158416 L1,11.0643564 C1,11.4405941 1.28078818,11.7227723 1.65517241,11.7227723 C2.21674877,11.7227723 2.77832512,12.0990099 2.96551724,12.6633663 C3.15270936,13.2277228 3.33990148,13.6980198 3.62068966,14.1683168 C3.90147783,14.7326733 3.80788177,15.3910891 3.43349754,15.7673267 C3.15270936,16.049505 3.15270936,16.4257426 3.43349754,16.7079208 L4.27586207,17.5544554 C4.55665025,17.8366337 4.93103448,17.8366337 5.1182266,17.5544554 C5.1182266,17.5544554 5.1182266,17.5544554 5.1182266,17.5544554 C5.49261084,17.3663366 5.86699507,17.1782178 6.24137931,17.1782178 Z" id="Shape"></path>
                </g>
                <path d="M29.8,35.6 L1.2,35.6 C0.5,35.6 0,35.1 0,34.4 L0,1.2 C0,0.5 0.5,0 1.2,0 L42.3,0 C43,0 43.5,0.5 43.5,1.2 L43.5,22.2 C43.5,22.4 43.3,22.6 43.1,22.6 C42.9,22.6 42.7,22.4 42.7,22.2 L42.7,1.2 C42.7,1 42.5,0.8 42.3,0.8 L1.2,0.8 C1,0.8 0.8,1 0.8,1.2 L0.8,34.5 C0.8,34.7 1,34.9 1.2,34.9 L29.8,34.9 C30,34.9 30.2,35.1 30.2,35.3 C30.2,35.5 30,35.6 29.8,35.6 Z" id="Shape" fill="#344154"></path>
                <path d="M5.7,6.6 C4.8,6.6 4.1,5.9 4.1,5 C4.1,4.1 4.8,3.4 5.7,3.4 C6.6,3.4 7.3,4.1 7.3,5 C7.3,5.9 6.6,6.6 5.7,6.6 Z M5.7,4.1 C5.2,4.1 4.9,4.5 4.9,5 C4.9,5.5 5.3,5.8 5.7,5.8 C6.2,5.8 6.5,5.4 6.5,5 C6.5,4.6 6.2,4.1 5.7,4.1 Z" id="Shape" fill="#344154"></path>
                <path d="M11.1,6.6 C10.2,6.6 9.5,5.9 9.5,5 C9.5,4.1 10.2,3.4 11.1,3.4 C12,3.4 12.7,4.1 12.7,5 C12.7,5.9 12,6.6 11.1,6.6 Z M11.1,4.1 C10.6,4.1 10.3,4.5 10.3,4.9 C10.3,5.3 10.7,5.7 11.1,5.7 C11.6,5.8 12,5.5 12,5 C12,4.5 11.6,4.1 11.1,4.1 Z" id="Shape" fill="#344154"></path>
                <path d="M16.6,6.6 C15.7,6.6 15,5.9 15,5 C15,4.1 15.7,3.4 16.6,3.4 C17.5,3.4 18.2,4.1 18.2,5 C18.2,5.9 17.5,6.6 16.6,6.6 Z M16.6,4.1 C16.1,4.1 15.8,4.5 15.8,4.9 C15.8,5.3 16.2,5.7 16.6,5.7 C17.1,5.7 17.4,5.3 17.4,4.9 C17.4,4.5 17,4.1 16.6,4.1 Z" id="Shape" fill="#344154"></path>
                <rect id="Rectangle-path" fill="#344154" x="0.4" y="9.3" width="42.6" height="1"></rect>
                <path d="M38.9,5.4 L21.9,5.4 C21.7,5.4 21.5,5.2 21.5,5 C21.5,4.8 21.7,4.6 21.9,4.6 L38.9,4.6 C39.1,4.6 39.3,4.8 39.3,5 C39.3,5.3 39.1,5.4 38.9,5.4 Z" id="Shape" fill="#344154"></path>
                <g id="Group" transform="translate(4.000000, 30.000000)" fill="#344154">
                    <path d="M0.5,2.8 C0.3,2.8 0.1,2.6 0.1,2.4 L0.1,0.6 C0.1,0.4 0.3,0.2 0.5,0.2 C0.7,0.2 0.9,0.4 0.9,0.6 L0.9,2.4 C0.9,2.6 0.7,2.8 0.5,2.8 Z" id="Shape"></path>
                    <path d="M2.6,2.8 C2.4,2.8 2.2,2.6 2.2,2.4 L2.2,0.6 C2.2,0.4 2.4,0.2 2.6,0.2 C2.8,0.2 3,0.4 3,0.6 L3,2.4 C3,2.6 2.8,2.8 2.6,2.8 Z" id="Shape"></path>
                    <path d="M25.8,1.9 L5.6,1.9 C5.4,1.9 5.2,1.7 5.2,1.5 C5.2,1.3 5.4,1.1 5.6,1.1 L25.8,1.1 C26,1.1 26.2,1.3 26.2,1.5 C26.2,1.7 26,1.9 25.8,1.9 Z" id="Shape"></path>
                </g>
                <g id="Group" transform="translate(19.000000, 15.000000)">
                    <polygon id="Shape" fill="#FF6C00" points="9.1 5.9 1.1 0.9 1.1 10.8"></polygon>
                    <path d="M1.1,11.2 C1,11.2 1,11.2 0.9,11.2 C0.8,11.1 0.7,11 0.7,10.9 L0.7,0.9 C0.7,0.8 0.8,0.6 0.9,0.6 C1,0.5 1.2,0.5 1.3,0.6 L9.2,5.6 C9.3,5.7 9.4,5.8 9.4,5.9 C9.4,6 9.3,6.2 9.2,6.2 L1.3,11.2 C1.3,11.2 1.2,11.2 1.1,11.2 Z M1.5,1.6 L1.5,10.2 L8.3,5.9 L1.5,1.6 Z" id="Shape" fill="#344154"></path>
                </g>
            </g>
        </g>
    </g>
</svg>