<?xml version="1.0" encoding="UTF-8"?>
<svg width="54px" height="46px" viewBox="0 0 54 46" version="1.1" xmlns="http://www.w3.org/2000/svg" xmlns:xlink="http://www.w3.org/1999/xlink">
    <!-- Generator: Sketch 45.2 (43514) - http://www.bohemiancoding.com/sketch -->
    <title>Copyright Removal</title>
    <desc>Created with Sketch.</desc>
    <defs></defs>
    <g id="Page-1" stroke="none" stroke-width="1" fill="none" fill-rule="evenodd">
        <g id="Packages" transform="translate(-773.000000, -398.000000)" fill-rule="nonzero">
            <g id="Copyright-Removal" transform="translate(773.000000, 398.000000)">
                <path d="M27.1,33 C21.7,33 17.3,28.6 17.3,23.2 C17.3,17.8 21.7,13.4 27.1,13.4 C32.5,13.4 36.9,17.8 36.9,23.2 C36.9,28.6 32.5,33 27.1,33 Z M27.1,14.4 C22.2,14.4 18.3,18.4 18.3,23.2 C18.3,28 22.3,32 27.1,32 C31.9,32 35.9,28 35.9,23.2 C35.9,18.4 32,14.4 27.1,14.4 Z" id="Shape" fill="#344154"></path>
                <circle id="Oval" fill="#FF6C00" cx="27.1" cy="23.2" r="6.8"></circle>
                <path d="M24.2,26.4 C23.3,25.6 22.9,24.5 22.9,23.2 C22.9,21.9 23.3,20.9 24.2,20 C25.1,19.2 26.1,18.7 27.3,18.7 C28.2,18.7 29,18.9 29.8,19.4 C30.5,19.9 31,20.5 31.4,21.3 L29.7,21.3 C29.2,20.4 28.5,20 27.4,20 C26.5,20 25.8,20.3 25.3,20.9 C24.7,21.5 24.5,22.2 24.5,23.2 C24.5,24.1 24.8,24.9 25.3,25.5 C25.9,26.1 26.6,26.4 27.4,26.4 C28.5,26.4 29.3,26 29.7,25.1 L31.4,25.1 C31.1,25.9 30.6,26.6 29.8,27 C29.1,27.4 28.3,27.7 27.3,27.7 C26.1,27.6 25,27.2 24.2,26.4 Z" id="Shape" fill="#FFFFFF"></path>
                <path d="M53.5,46 L1.7,46 C0.9,46 0.2,45.3 0.2,44.5 L0.2,1.7 C0.2,0.9 0.9,0.2 1.7,0.2 L45.8,0.2 C45.9,0.2 46,0.2 46.1,0.3 L53.8,7.5 C53.9,7.7 54,7.8 54,7.9 L54,45.5 C54,45.8 53.8,46 53.5,46 Z M1.7,1.2 C1.4,1.2 1.2,1.4 1.2,1.7 L1.2,44.5 C1.2,44.8 1.4,45 1.7,45 L53,45 L53,8.1 L45.6,1.1 L1.7,1.1 L1.7,1.2 Z" id="Shape" fill="#344154"></path>
                <path d="M53.3,8.2 L45.8,8.2 C45.5,8.2 45.3,8 45.3,7.7 L45.3,0.7 C45.3,0.5 45.4,0.3 45.6,0.3 C45.8,0.2 46,0.3 46.1,0.4 L53.6,7.4 C53.7,7.5 53.8,7.7 53.7,7.9 C53.6,8.1 53.5,8.2 53.3,8.2 Z M46.3,7.2 L52.1,7.2 L46.3,1.8 L46.3,7.2 Z" id="Shape" fill="#344154"></path>
            </g>
        </g>
    </g>
</svg>