<?xml version="1.0" encoding="UTF-8"?>
<svg width="54px" height="45px" viewBox="0 0 54 45" version="1.1" xmlns="http://www.w3.org/2000/svg" xmlns:xlink="http://www.w3.org/1999/xlink">
    <!-- Generator: Sketch 45.2 (43514) - http://www.bohemiancoding.com/sketch -->
    <title>Graphic Source Files</title>
    <desc>Created with Sketch.</desc>
    <defs></defs>
    <g id="Page-1" stroke="none" stroke-width="1" fill="none" fill-rule="evenodd">
        <g id="Packages" transform="translate(-385.000000, -600.000000)" fill-rule="nonzero">
            <g id="Graphic-Source-Files" transform="translate(385.000000, 600.000000)">
                <path d="M50.9,5.6 L50.9,17.4 L48.3,17.4 L48.3,5.6 C48.3,2.7 46,0.4 43.1,0.4 L45.7,0.4 C48.6,0.5 50.9,2.8 50.9,5.6 Z" id="Shape" fill="#FF6C00"></path>
                <path d="M50.9,14.5 L50.9,39.3 C50.9,42.2 48.6,44.5 45.7,44.5 L43.1,44.5 C46,44.5 48.3,42.2 48.3,39.3 L47.9,15.3 L50.9,14.5 Z" id="Shape" fill="#FF6C00"></path>
                <path d="M48.3,44.9 L5.6,44.9 C2.5,44.9 0,42.4 0,39.3 L0,5.6 C0,2.5 2.5,0 5.6,0 L48.3,0 C51.4,0 53.9,2.5 53.9,5.6 L53.9,39.3 C53.9,42.4 51.4,44.9 48.3,44.9 Z M5.6,0.9 C3,0.9 0.9,3 0.9,5.6 L0.9,39.3 C0.9,41.9 3,44 5.6,44 L48.3,44 C50.9,44 53,41.9 53,39.3 L53,5.6 C53,3 50.9,0.9 48.3,0.9 L5.6,0.9 Z" id="Shape" fill="#344154"></path>
                <path d="M42.7,44.9 C42.4,44.9 42.2,44.7 42.2,44.4 C42.2,44.1 42.4,43.9 42.7,43.9 C45.3,43.9 47.4,41.8 47.4,39.2 L47.4,27.5 C47.4,27.2 47.6,27 47.9,27 C48.2,27 48.4,27.2 48.4,27.5 L48.4,39.3 C48.4,42.4 45.8,44.9 42.7,44.9 Z" id="Shape" fill="#344154"></path>
                <path d="M47.9,28 C47.6,28 47.4,27.8 47.4,27.5 L47.4,5.6 C47.4,3 45.3,0.9 42.7,0.9 C42.4,0.9 42.2,0.7 42.2,0.4 C42.2,0.1 42.5,0 42.7,0 C45.8,0 48.3,2.5 48.3,5.6 L48.3,27.5 C48.4,27.8 48.2,28 47.9,28 Z" id="Shape" fill="#344154"></path>
                <g id="Group" transform="translate(13.000000, 18.000000)" fill="#344154">
                    <path d="M5.6,1.1 C6.1,1.5 6.3,2.1 6.3,2.7 C6.3,3.4 6.1,3.9 5.6,4.4 C5.1,4.9 4.5,5.1 3.5,5.1 L2.1,5.1 L2.1,8.3 L0.8,8.3 L0.8,0.5 L3.5,0.5 C4.4,0.5 5.1,0.7 5.6,1.1 Z M2.1,4.1 L3.5,4.1 C4,4.1 4.3,4 4.6,3.8 C4.8,3.6 5,3.2 5,2.8 C5,2.4 4.9,2.1 4.6,1.8 C4.4,1.6 4,1.5 3.5,1.5 L2.1,1.5 L2.1,4.1 Z" id="Shape"></path>
                    <path d="M9.9,1.4 C9.5,1.4 9.2,1.5 9,1.7 C8.8,1.9 8.6,2.2 8.6,2.5 C8.6,2.9 8.7,3.2 9,3.3 C9.3,3.5 9.6,3.6 10,3.7 C10.4,3.8 10.8,3.9 11.2,4 C11.6,4.1 11.9,4.3 12.2,4.6 C12.5,4.9 12.6,5.4 12.6,5.9 C12.6,6.5 12.4,7 11.9,7.4 C11.4,7.9 10.8,8.1 10,8.1 C9.2,8.1 8.5,7.9 8,7.5 C7.5,7.1 7.2,6.6 7.2,5.9 L8.6,5.9 C8.6,6.2 8.8,6.5 9,6.7 C9.2,6.9 9.6,7 10,7 C10.4,7 10.8,6.9 11,6.7 C11.2,6.5 11.4,6.2 11.4,5.9 C11.4,5.6 11.3,5.4 11.2,5.2 C11,5 10.8,4.9 10.6,4.8 C10.4,4.7 10.1,4.6 9.8,4.6 C9.5,4.5 9.2,4.5 8.9,4.4 C8.6,4.3 8.3,4.2 8.1,4.1 C7.9,4 7.7,3.8 7.5,3.5 C7.3,3.2 7.3,2.9 7.3,2.5 C7.3,1.8 7.5,1.3 8,0.9 C8.5,0.5 9.1,0.3 9.9,0.3 C10.7,0.3 11.3,0.5 11.8,0.8 C12.3,1.2 12.5,1.7 12.6,2.4 L11.2,2.4 C11.2,2.1 11,1.9 10.8,1.7 C10.6,1.5 10.3,1.4 9.9,1.4 Z" id="Shape"></path>
                    <path d="M16.8,0.5 C18.1,0.5 19.1,0.9 19.8,1.6 C20.5,2.3 20.9,3.3 20.9,4.5 C20.9,5.7 20.5,6.6 19.8,7.3 C19.1,8 18.1,8.3 16.8,8.3 L14.3,8.3 L14.3,0.5 L16.8,0.5 Z M15.5,7.3 L16.8,7.3 C17.7,7.3 18.4,7 18.9,6.5 C19.4,6 19.6,5.3 19.6,4.4 C19.6,3.5 19.4,2.8 18.9,2.3 C18.4,1.8 17.7,1.5 16.8,1.5 L15.5,1.5 L15.5,7.3 Z" id="Shape"></path>
                </g>
            </g>
        </g>
    </g>
</svg>