<?xml version="1.0" encoding="UTF-8"?>
<svg width="55px" height="46px" viewBox="0 0 55 46" version="1.1" xmlns="http://www.w3.org/2000/svg" xmlns:xlink="http://www.w3.org/1999/xlink">
    <!-- Generator: Sketch 45.2 (43514) - http://www.bohemiancoding.com/sketch -->
    <title>Group 22</title>
    <desc>Created with Sketch.</desc>
    <defs></defs>
    <g id="Page-1" stroke="none" stroke-width="1" fill="none" fill-rule="evenodd">
        <g id="Packages" transform="translate(-1175.000000, -599.000000)" fill-rule="nonzero">
            <g id="Group-23-Copy-6" transform="translate(1060.000000, 599.000000)">
                <g id="Group-22" transform="translate(115.000000, 0.000000)">
                    <g id="Special-Partner-Offers">
                        <path d="M32.8,34.9 L30.3,34.9 L30.3,34.1 L32.8,34.1 C35.1,34.1 37.3,33.4 39.2,32.1 L41,30.9 C41.1,30.8 41.2,30.7 41.1,30.6 C40.9,30.3 40.6,30 40.2,29.8 C39.5,29.4 38.6,29.4 37.7,29.8 C34.2,31.4 31.2,30 31,30 L31,30 C30,29.4 29,28.8 28,28.4 C24,26.8 19.5,27.3 15.9,29.9 L15.4,29.2 C19.2,26.5 24,25.9 28.3,27.6 C29.3,28 30.4,28.6 31.4,29.2 C31.7,29.3 34.4,30.4 37.3,28.9 C38.4,28.4 39.6,28.4 40.6,28.9 C41.1,29.2 41.5,29.5 41.8,30 C42.1,30.5 42,31.2 41.5,31.5 L39.7,32.7 C37.6,34.2 35.3,34.9 32.8,34.9 Z" id="Shape" fill="#344154"></path>
                        <path d="M15.7,38.6 L15.5,37.8 C15.6,37.8 21.3,36.7 31,37.3 C33.5,37.4 36,36.9 38.2,35.7 L53.1,27.9 C53.2,27.9 53.2,27.8 53.2,27.8 C53.2,27.8 53.2,27.7 53.2,27.7 C52.7,27 51.6,26.3 49.5,26.9 C49.2,27 49,27.1 48.8,27.2 L41.3,30.4 L41,29.6 L48.5,26.4 C48.7,26.3 49,26.2 49.4,26.1 C52.1,25.4 53.4,26.5 54,27.2 C54.2,27.4 54.3,27.7 54.2,28 C54.1,28.3 54,28.5 53.7,28.7 L38.8,36.5 C36.4,37.8 33.8,38.3 31.1,38.2 C21.4,37.6 15.7,38.6 15.7,38.6 Z" id="Shape" fill="#344154"></path>
                        <polygon id="Shape" fill="#344154" points="15.9 42.2 10 42.2 10 41.4 15 41.4 15 28 10 28 10 27.2 15.9 27.2"></polygon>
                        <g id="Group" transform="translate(0.000000, 23.000000)">
                            <rect id="Rectangle-path" fill="#FF6C00" x="0.4" y="0.5" width="9.5" height="22.1"></rect>
                            <path d="M10.4,23 L0,23 L0,0 L10.4,0 L10.4,23 Z M0.8,22.1 L9.5,22.1 L9.5,0.9 L0.8,0.9 L0.8,22.1 Z" id="Shape" fill="#344154"></path>
                        </g>
                        <path d="M37.4,10.3 L37.4,10.1 C37.4,8.7 36.4,7.6 35.1,7.3 L35.1,6.6 L34.1,6.6 L34.1,7.3 C32.8,7.5 31.8,8.7 31.8,10.1 C31.8,11.3 32.6,12.3 33.9,12.8 C34.1,12.9 34.2,12.9 34.4,13 C34.7,13.1 35,13.2 35.3,13.3 C36,13.7 36.5,14.3 36.5,15 C36.5,16 35.7,16.8 34.7,16.8 C33.7,16.8 32.9,16 32.9,15 L32.9,14.8 L31.9,14.8 L31.9,15 C31.9,16.4 32.9,17.5 34.2,17.7 L34.2,18.4 L35.2,18.4 L35.2,17.7 C36.5,17.5 37.5,16.3 37.5,14.9 C37.5,14.3 37.3,13.7 36.9,13.1 C36.5,12.6 35.9,12.3 35.4,12.1 C35.3,12.1 35.1,12 35,12 C34.5,11.8 34,11.7 33.7,11.4 C33.3,11.1 33,10.5 33,10 C33,9 33.8,8.2 34.8,8.2 C35.8,8.2 36.6,9 36.6,10 L36.6,10.2 L37.4,10.2 L37.4,10.3 Z" id="Shape" fill="#344154"></path>
                        <path d="M34.6,0.5 C27.9,0.5 22.5,5.9 22.5,12.6 C22.5,19.3 27.9,24.7 34.6,24.7 C41.3,24.7 46.7,19.3 46.7,12.6 C46.7,5.9 41.3,0.5 34.6,0.5 Z M34.6,21.7 C29.6,21.7 25.5,17.6 25.5,12.6 C25.5,7.6 29.6,3.5 34.6,3.5 C39.6,3.5 43.7,7.6 43.7,12.6 C43.7,17.6 39.6,21.7 34.6,21.7 Z" id="Shape" fill="#FF6C00"></path>
                        <path d="M34.6,25.1 C27.7,25.1 22.1,19.5 22.1,12.6 C22.1,5.7 27.7,0.1 34.6,0.1 C41.5,0.1 47.1,5.7 47.1,12.6 C47.1,19.5 41.5,25.1 34.6,25.1 Z M34.6,0.9 C28.2,0.9 23,6.2 23,12.6 C23,19 28.2,24.2 34.6,24.2 C41,24.2 46.2,19 46.2,12.6 C46.2,6.2 41,0.9 34.6,0.9 Z" id="Shape" fill="#344154"></path>
                        <path d="M34.6,22.1 C29.3,22.1 25,17.8 25,12.5 C25,7.3 29.3,3 34.6,3 C39.9,3 44.2,7.3 44.2,12.6 C44.2,17.9 39.9,22.1 34.6,22.1 Z M34.6,3.9 C29.8,3.9 25.9,7.8 25.9,12.6 C25.9,17.4 29.8,21.3 34.6,21.3 C39.4,21.3 43.3,17.4 43.3,12.6 C43.3,7.8 39.4,3.9 34.6,3.9 Z" id="Shape" fill="#344154"></path>
                    </g>
                </g>
            </g>
        </g>
    </g>
</svg>