<?xml version="1.0" encoding="UTF-8"?>
<svg width="52px" height="37px" viewBox="0 0 52 37" version="1.1" xmlns="http://www.w3.org/2000/svg" xmlns:xlink="http://www.w3.org/1999/xlink">
    <!-- Generator: Sketch 45.2 (43514) - http://www.bohemiancoding.com/sketch -->
    <title>“</title>
    <desc>Created with Sketch.</desc>
    <defs></defs>
    <g id="Page-1" stroke="none" stroke-width="1" fill="none" fill-rule="evenodd" opacity="0.200000003">
        <g id="Packages" transform="translate(-234.000000, -915.000000)" fill="#5E7081">
            <g id="BG" transform="translate(0.000000, 835.000000)">
                <g id="Group-51" transform="translate(230.000000, 80.000000)">
                    <g id="Group-36">
                        <path d="M55.3984375,4.2496189 C53.1953015,5.32889259 51.1445407,6.41939236 49.2460938,7.52115091 C47.3476468,8.62290947 45.7187568,9.71340924 44.359375,10.7926829 C42.765617,12.0968053 41.4531302,13.4908462 40.421875,14.9748476 C39.3906198,16.4588489 38.5000038,18.370034 37.75,20.7084604 L40.7734375,20.7084604 C43.7265773,20.7084604 45.8476498,21.4054808 47.1367188,22.7995427 C48.4257877,24.1936045 49.0703125,25.7450372 49.0703125,27.4538872 C49.0703125,29.6124346 48.2031337,31.6697692 46.46875,33.6259527 C44.7343663,35.5821363 42.3672025,36.5602134 39.3671875,36.5602134 C36.1796716,36.5602134 33.8242264,35.7058012 32.3007812,33.9969512 C30.7773361,32.2881012 30.015625,30.0396481 30.015625,27.2515244 C30.015625,23.6089757 30.8359293,20.3037496 32.4765625,17.335747 C34.1171957,14.3677443 36.1796751,11.7145696 38.6640625,9.37614329 C41.1015747,7.12765644 43.644518,5.26144035 46.2929688,3.77743902 C48.9414195,2.2934377 51.2734274,1.03430395 53.2890625,0 L55.3984375,4.2496189 Z M29.3828125,4.2496189 C27.1796765,5.32889259 25.1289157,6.41939236 23.2304688,7.52115091 C21.3320218,8.62290947 19.7031318,9.71340924 18.34375,10.7926829 C16.749992,12.0968053 15.4375052,13.4908462 14.40625,14.9748476 C13.3749948,16.4588489 12.4843787,18.370034 11.734375,20.7084604 L14.7578125,20.7084604 C17.7109523,20.7084604 19.8320248,21.4054808 21.1210938,22.7995427 C22.4101627,24.1936045 23.0546875,25.7450372 23.0546875,27.4538872 C23.0546875,29.6124346 22.1875087,31.6697692 20.453125,33.6259527 C18.7187413,35.5821363 16.3515775,36.5602134 13.3515625,36.5602134 C10.1640466,36.5602134 7.80860137,35.7058012 6.28515625,33.9969512 C4.76171113,32.2881012 4,30.0396481 4,27.2515244 C4,23.6089757 4.8203043,20.3037496 6.4609375,17.335747 C8.1015707,14.3677443 10.1640501,11.7145696 12.6484375,9.37614329 C15.0859497,7.12765644 17.628893,5.26144035 20.2773438,3.77743902 C22.9257945,2.2934377 25.2578024,1.03430395 27.2734375,0 L29.3828125,4.2496189 Z" id="“"></path>
                    </g>
                </g>
            </g>
        </g>
    </g>
</svg>