<?xml version="1.0" encoding="UTF-8"?>
<svg width="54px" height="48px" viewBox="0 0 54 48" version="1.1" xmlns="http://www.w3.org/2000/svg" xmlns:xlink="http://www.w3.org/1999/xlink">
    <!-- Generator: Sketch 45.2 (43514) - http://www.bohemiancoding.com/sketch -->
    <title>Lifetime Usage</title>
    <desc>Created with Sketch.</desc>
    <defs></defs>
    <g id="Page-1" stroke="none" stroke-width="1" fill="none" fill-rule="evenodd">
        <g id="Packages" transform="translate(-773.000000, -599.000000)">
            <g id="Lifetime-Usage" transform="translate(773.000000, 599.000000)">
                <path d="M18.1,11.2 L0.4,11.2 C0.2,11.2 0.1,11.1 0,10.9 C0,10.8 0,10.6 0.1,10.5 L9,1.1 C9.1,1 9.4,1 9.6,1.1 L18.5,10.5 C18.6,10.6 18.6,10.8 18.6,11 C18.5,11.1 18.3,11.2 18.1,11.2 Z M1.4,10.4 L17.2,10.4 L9.3,2 L1.4,10.4 Z" id="Shape" fill="#344154" fill-rule="nonzero"></path>
                <path d="M53.6,11.2 L35.9,11.2 C35.7,11.2 35.6,11.1 35.5,10.9 C35.4,10.7 35.5,10.6 35.6,10.4 L44.5,1 C44.6,1 44.9,1 45,1.1 L53.9,10.5 C54,10.6 54,10.8 54,10.9 C53.9,11.1 53.7,11.2 53.6,11.2 Z M36.8,10.4 L52.6,10.4 L44.7,2 L36.8,10.4 Z" id="Shape" fill="#344154" fill-rule="nonzero"></path>
                <path d="M35.9,11.2 L18.1,11.2 C17.9,11.2 17.8,11.1 17.7,10.9 C17.6,10.7 17.7,10.6 17.8,10.4 L26.7,1 C26.9,0.8 27.2,0.8 27.3,1 L36.2,10.4 C36.3,10.5 36.3,10.7 36.3,10.9 C36.2,11.1 36,11.2 35.9,11.2 Z M19.1,10.4 L34.9,10.4 L27,2 L19.1,10.4 Z" id="Shape" fill="#344154" fill-rule="nonzero"></path>
                <path d="M27,37 C26.8,37 26.7,36.9 26.6,36.7 L17.7,10.9 C17.7,10.8 17.7,10.6 17.8,10.5 C17.9,10.4 18,10.3 18.1,10.3 L35.8,10.3 C35.9,10.3 36.1,10.4 36.1,10.5 C36.2,10.6 36.2,10.8 36.2,10.9 L27.3,36.7 C27.3,36.8 27.2,37 27,37 Z M18.7,11.2 L27,35.2 L35.3,11.1 L18.7,11.1 L18.7,11.2 Z" id="Shape" fill="#344154" fill-rule="nonzero"></path>
                <g id="Group" transform="translate(5.000000, 3.000000)" fill-rule="nonzero" fill="#FF6C00">
                    <polygon id="Shape" points="9.1 0.5 17.2 0.5 13.1 4.8"></polygon>
                    <polygon id="Shape" points="26.8 0.5 34.9 0.5 30.9 4.8"></polygon>
                    <polygon id="Shape" points="0.5 9.8 11.7 9.8 17.2 26"></polygon>
                    <polygon id="Shape" points="32.3 9.8 43.5 9.8 26.8 26"></polygon>
                </g>
                <path d="M18.1,11.2 C18,11.2 17.9,11.2 17.8,11.1 L9,1.7 C8.9,1.6 8.8,1.4 8.9,1.3 C9,1.1 9.1,1 9.3,1 L27,1 C27.2,1 27.3,1.1 27.4,1.3 C27.5,1.5 27.4,1.6 27.3,1.8 L18.4,11.2 C18.4,11.1 18.3,11.2 18.1,11.2 Z M10.3,1.8 L18.2,10.1 L26,1.8 L10.3,1.8 Z" id="Shape" fill="#344154" fill-rule="nonzero"></path>
                <path d="M35.9,11.2 C35.8,11.2 35.7,11.2 35.6,11.1 L26.7,1.7 C26.6,1.6 26.6,1.4 26.6,1.2 C26.7,1.1 26.8,1 27,1 L44.7,1 C44.9,1 45,1.1 45.1,1.3 C45.2,1.5 45.1,1.6 45,1.8 L36.1,11.2 C36.1,11.1 36,11.2 35.9,11.2 Z M28,1.8 L35.9,10.1 L43.8,1.8 L28,1.8 Z" id="Shape" fill="#344154" fill-rule="nonzero"></path>
                <path d="M27,37 C26.9,37 26.8,37 26.7,36.9 L0.1,11.1 C0,11 0,10.8 0,10.6 C0.1,10.4 0.2,10.3 0.4,10.3 L18.1,10.3 C18.3,10.3 18.4,10.4 18.5,10.6 L27.4,36.4 C27.5,36.6 27.4,36.8 27.2,36.9 C27.2,36.9 27.1,37 27,37 Z M1.5,11.2 L26,35 L17.8,11.2 L1.5,11.2 Z" id="Shape" fill="#344154" fill-rule="nonzero"></path>
                <path d="M27,37 C26.9,37 26.8,37 26.8,36.9 C26.6,36.8 26.6,36.6 26.6,36.4 L35.5,10.6 C35.6,10.4 35.7,10.3 35.9,10.3 L53.6,10.3 C53.8,10.3 53.9,10.4 54,10.6 C54.1,10.8 54,10.9 53.9,11.1 L27.3,36.8 C27.2,36.9 27.1,37 27,37 Z M36.2,11.2 L28,35 L52.6,11.2 L36.2,11.2 Z" id="Shape" fill="#344154" fill-rule="nonzero"></path>
                <path d="M17,47 L36.4209517,47" id="Path-5" stroke="#384458"></path>
            </g>
        </g>
    </g>
</svg>