<?xml version="1.0" encoding="UTF-8"?>
<svg width="54px" height="46px" viewBox="0 0 54 46" version="1.1" xmlns="http://www.w3.org/2000/svg" xmlns:xlink="http://www.w3.org/1999/xlink">
    <!-- Generator: Sketch 45.2 (43514) - http://www.bohemiancoding.com/sketch -->
    <title>Unlimited Domains</title>
    <desc>Created with Sketch.</desc>
    <defs></defs>
    <g id="Page-1" stroke="none" stroke-width="1" fill="none" fill-rule="evenodd">
        <g id="Packages" transform="translate(-385.000000, -399.000000)" fill-rule="nonzero">
            <g id="Unlimited-Domains" transform="translate(385.000000, 399.000000)">
                <g id="Group" transform="translate(37.000000, 29.000000)" fill="#344154">
                    <path d="M8.9,17 C4.4,17 0.8,13.4 0.8,8.9 C0.8,4.4 4.4,0.8 8.9,0.8 C13.4,0.8 17,4.4 17,8.9 C17,13.4 13.4,17 8.9,17 Z M8.9,1.6 C4.9,1.6 1.6,4.9 1.6,8.9 C1.6,12.9 4.9,16.2 8.9,16.2 C12.9,16.2 16.2,12.9 16.2,8.9 C16.2,4.9 12.9,1.6 8.9,1.6 Z" id="Shape"></path>
                    <path d="M8.3,12.2 L5.4,9.6 C5.2,9.5 5.2,9.2 5.4,9 C5.5,8.8 5.8,8.8 6,9 L8.3,11.1 L12.3,6.2 C12.4,6 12.7,6 12.9,6.1 C13.1,6.2 13.1,6.5 13,6.7 L8.3,12.2 Z" id="Shape"></path>
                </g>
                <rect id="Rectangle-path" fill="#FF6C00" x="0.4" y="10.6" width="45.5" height="4.5"></rect>
                <path d="M38.2,38.3 L1.2,38.3 C0.6,38.3 0,37.7 0,37 L0,1.5 C0,0.8 0.6,0.3 1.2,0.3 L45,0.3 C45.7,0.3 46.2,0.9 46.2,1.5 L46.2,30.2 L45.4,30.2 L45.4,1.5 C45.4,1.3 45.2,1.1 45,1.1 L1.2,1.1 C1,1.1 0.8,1.3 0.8,1.5 L0.8,37 C0.8,37.2 1,37.4 1.2,37.4 L38.2,37.4 L38.2,38.3 Z" id="Shape" fill="#344154"></path>
                <path d="M16.1,6.5 C15.6,6.5 15.2,6.1 15.2,5.6 C15.2,5.1 15.6,4.7 16.1,4.7 C16.6,4.7 17,5.1 17,5.6 C17,6.1 16.6,6.5 16.1,6.5 Z M16.1,5.5 C16,5.5 16,5.5 16,5.6 C16,5.7 16.1,5.7 16.1,5.7 C16.2,5.7 16.2,5.6 16.2,5.6 C16.3,5.5 16.2,5.5 16.1,5.5 Z" id="Shape" fill="#344154"></path>
                <path d="M11.1,6.6 C10.6,6.6 10.2,6.2 10.2,5.7 C10.2,5.2 10.6,4.8 11.1,4.8 C11.6,4.8 12,5.2 12,5.7 C12,6.2 11.6,6.6 11.1,6.6 Z M11.1,5.5 C11,5.5 11,5.6 11,5.7 C11,5.8 11.1,5.8 11.1,5.8 C11.2,5.8 11.2,5.7 11.2,5.7 C11.2,5.6 11.2,5.5 11.1,5.5 Z" id="Shape" fill="#344154"></path>
                <path d="M6.1,6.6 C5.6,6.6 5.2,6.2 5.2,5.7 C5.2,5.2 5.6,4.8 6.1,4.8 C6.6,4.8 7,5.2 7,5.7 C7,6.2 6.6,6.6 6.1,6.6 Z M6.1,5.6 C6,5.6 5.9,5.6 5.9,5.7 C5.9,5.8 6,5.8 6,5.8 C6.1,5.8 6.1,5.7 6.1,5.7 C6.2,5.6 6.2,5.6 6.1,5.6 Z" id="Shape" fill="#344154"></path>
                <rect id="Rectangle-path" fill="#344154" x="0.4" y="10.2" width="45.5" height="1"></rect>
                <path d="M41.5,6 L23.4,6 C23.2,6 23,5.9 23,5.7 C23,5.5 23.2,5.3 23.4,5.3 L41.5,5.3 C41.7,5.3 41.9,5.5 41.9,5.7 C41.9,5.9 41.7,6 41.5,6 Z" id="Shape" fill="#344154"></path>
                <g id="Group" transform="translate(9.000000, 21.000000)" fill="#344154">
                    <polygon id="Shape" points="8.2 0.8 9.3 0.8 7.4 7.2 6.2 7.2 4.9 2.3 3.5 7.2 2.3 7.2 0.5 0.8 1.6 0.8 2.9 6 4.3 0.8 5.5 0.8 6.8 6"></polygon>
                    <polygon id="Shape" points="17.5 0.8 18.6 0.8 16.7 7.2 15.5 7.2 14.2 2.3 12.8 7.2 11.6 7.2 9.8 0.8 10.9 0.8 12.2 6 13.6 0.8 14.8 0.8 16.1 6"></polygon>
                    <polygon id="Shape" points="26.7 0.8 27.8 0.8 25.9 7.2 24.7 7.2 23.4 2.3 22 7.2 20.8 7.2 19 0.8 20.1 0.8 21.4 6 22.8 0.8 24 0.8 25.3 6"></polygon>
                </g>
            </g>
        </g>
    </g>
</svg>