<?xml version="1.0" encoding="UTF-8"?>
<svg width="21px" height="15px" viewBox="0 0 21 15" version="1.1" xmlns="http://www.w3.org/2000/svg" xmlns:xlink="http://www.w3.org/1999/xlink">
    <!-- Generator: Sketch 45.2 (43514) - http://www.bohemiancoding.com/sketch -->
    <title>Fill 1</title>
    <desc>Created with Sketch.</desc>
    <defs></defs>
    <g id="Page-1" stroke="none" stroke-width="1" fill="none" fill-rule="evenodd">
        <g id="Documentation-Search" transform="translate(-959.000000, -1141.000000)" fill="#FF6C00">
            <g id="Group-12" transform="translate(0.000000, 298.000000)">
                <g id="Group-10" transform="translate(230.000000, 514.000000)">
                    <g id="Group-8" transform="translate(390.000000, 329.000000)">
                        <path d="M353.141849,0.225476359 C352.855094,-0.0751587862 352.379948,-0.0751587862 352.08319,0.225476359 C351.797269,0.516796048 351.797269,0.999505999 352.08319,1.29082569 L357.449841,6.74206069 L339.742728,6.74206069 C339.329268,6.74206069 339,7.07657022 339,7.49661256 C339,7.91326747 339.329268,8.26047989 339.742728,8.26047989 L357.449841,8.26047989 L352.08319,13.699012 C351.797269,14.000494 351.797269,14.4865914 352.08319,14.7745236 C352.379948,15.0751588 352.855094,15.0751588 353.141849,14.7745236 L359.778057,8.03267466 C360.073981,7.74135498 360.073981,7.25864502 359.778057,6.97071277 L353.141849,0.225476359 Z" id="Fill-1"></path>
                    </g>
                </g>
            </g>
        </g>
    </g>
</svg>