<?xml version="1.0" encoding="UTF-8"?>
<svg width="34px" height="24px" viewBox="0 0 34 24" version="1.1" xmlns="http://www.w3.org/2000/svg" xmlns:xlink="http://www.w3.org/1999/xlink">
    <!-- Generator: Sketch 45.2 (43514) - http://www.bohemiancoding.com/sketch -->
    <title></title>
    <desc>Created with Sketch.</desc>
    <defs></defs>
    <g id="Symbols" stroke="none" stroke-width="1" fill="none" fill-rule="evenodd">
        <g id="Footer" transform="translate(-1260.000000, -377.000000)" fill="#455566">
            <path d="M1276.34322,380.328125 C1275.13099,379.46875 1273.69968,379 1272.23916,379 C1268.1351,379 1264.80511,382.5625 1264.80511,386.9375 C1264.80511,391.328125 1268.1351,394.890625 1272.23916,394.890625 C1273.69968,394.890625 1275.13099,394.421875 1276.34322,393.5625 C1272.42903,390.15625 1272.45824,383.734375 1276.34322,380.328125 Z M1276.8252,380.703125 C1273.05705,383.875 1273.04245,390.03125 1276.8252,393.1875 C1280.60794,390.03125 1280.59334,383.875 1276.8252,380.703125 Z M1277.30717,380.328125 C1281.17755,383.734375 1281.23597,390.171875 1277.30717,393.5625 C1278.5194,394.421875 1279.96531,394.890625 1281.41123,394.890625 C1285.51529,394.890625 1288.84528,391.328125 1288.84528,386.9375 C1288.84528,382.5625 1285.51529,379 1281.41123,379 C1279.95071,379 1278.5194,379.46875 1277.30717,380.328125 Z M1288.12962,391.609375 L1288.23186,391.609375 L1288.23186,391.5625 L1287.98357,391.5625 L1287.98357,391.609375 L1288.08581,391.609375 L1288.08581,391.875 L1288.12962,391.875 L1288.12962,391.609375 Z M1288.55317,391.875 L1288.6116,391.875 L1288.6116,391.5625 L1288.53857,391.5625 L1288.45094,391.765625 L1288.36331,391.5625 L1288.29028,391.5625 L1288.29028,391.875 L1288.3341,391.875 L1288.3341,391.640625 L1288.42173,391.84375 L1288.48015,391.84375 L1288.55317,391.640625 L1288.55317,391.875 Z M1288.43633,398.78125 L1288.36331,398.78125 L1288.36331,398.734375 L1288.43633,398.734375 L1288.43633,398.78125 Z M1288.43633,398.890625 L1288.48015,398.890625 L1288.42173,398.8125 C1288.45094,398.8125 1288.45094,398.796875 1288.46554,398.796875 C1288.48015,398.78125 1288.48015,398.765625 1288.48015,398.75 C1288.48015,398.734375 1288.48015,398.71875 1288.46554,398.703125 C1288.45094,398.703125 1288.43633,398.6875 1288.40712,398.6875 L1288.31949,398.6875 L1288.31949,398.890625 L1288.36331,398.890625 L1288.36331,398.8125 L1288.37791,398.8125 L1288.43633,398.890625 Z M1270.00456,397.828125 C1270.00456,397.453125 1270.22364,397.15625 1270.60338,397.15625 C1270.9539,397.15625 1271.18759,397.453125 1271.18759,397.828125 C1271.18759,398.21875 1270.9539,398.5 1270.60338,398.5 C1270.22364,398.5 1270.00456,398.203125 1270.00456,397.828125 Z M1276.91283,397.140625 C1277.19033,397.140625 1277.38019,397.3125 1277.42401,397.640625 L1276.40164,397.640625 C1276.44546,397.34375 1276.62072,397.140625 1276.91283,397.140625 Z M1282.11228,397.828125 C1282.11228,397.453125 1282.33136,397.15625 1282.69649,397.15625 C1283.06162,397.15625 1283.2953,397.453125 1283.2953,397.828125 C1283.2953,398.21875 1283.06162,398.5 1282.69649,398.5 C1282.33136,398.5 1282.11228,398.203125 1282.11228,397.828125 Z M1286.08489,397.828125 C1286.08489,397.453125 1286.31858,397.15625 1286.68371,397.15625 C1287.03423,397.15625 1287.28252,397.453125 1287.28252,397.828125 C1287.28252,398.21875 1287.03423,398.5 1286.68371,398.5 C1286.31858,398.5 1286.08489,398.203125 1286.08489,397.828125 Z M1288.39252,398.953125 C1288.37791,398.953125 1288.36331,398.953125 1288.3341,398.9375 C1288.31949,398.9375 1288.30489,398.921875 1288.29028,398.90625 C1288.27568,398.890625 1288.26107,398.875 1288.26107,398.859375 C1288.24647,398.828125 1288.24647,398.8125 1288.24647,398.796875 C1288.24647,398.765625 1288.24647,398.75 1288.26107,398.734375 C1288.26107,398.703125 1288.27568,398.6875 1288.29028,398.671875 C1288.30489,398.65625 1288.31949,398.65625 1288.3341,398.640625 C1288.36331,398.625 1288.37791,398.625 1288.39252,398.625 C1288.42173,398.625 1288.43633,398.625 1288.45094,398.640625 C1288.48015,398.65625 1288.49475,398.65625 1288.50936,398.671875 C1288.52396,398.6875 1288.52396,398.703125 1288.53857,398.734375 C1288.53857,398.75 1288.55317,398.765625 1288.55317,398.796875 C1288.55317,398.8125 1288.53857,398.828125 1288.53857,398.859375 C1288.52396,398.875 1288.52396,398.890625 1288.50936,398.90625 C1288.49475,398.921875 1288.48015,398.9375 1288.45094,398.9375 C1288.43633,398.953125 1288.42173,398.953125 1288.39252,398.953125 Z M1268.74852,398.890625 L1269.18667,398.890625 L1269.18667,397.5625 C1269.18667,397.0625 1268.87996,396.734375 1268.39799,396.71875 C1268.1497,396.71875 1267.88681,396.796875 1267.71155,397.09375 C1267.5801,396.859375 1267.36102,396.71875 1267.05431,396.71875 C1266.84984,396.71875 1266.64537,396.796875 1266.48471,397.03125 L1266.48471,396.78125 L1266.04655,396.78125 L1266.04655,398.890625 L1266.48471,398.890625 L1266.48471,397.71875 C1266.48471,397.34375 1266.67458,397.15625 1266.96668,397.15625 C1267.25879,397.15625 1267.40484,397.359375 1267.40484,397.71875 L1267.40484,398.890625 L1267.82839,398.890625 L1267.82839,397.71875 C1267.82839,397.34375 1268.03286,397.15625 1268.31036,397.15625 C1268.60247,397.15625 1268.74852,397.359375 1268.74852,397.71875 L1268.74852,398.890625 Z M1271.17298,398.890625 L1271.59653,398.890625 L1271.59653,396.78125 L1271.17298,396.78125 L1271.17298,397.03125 C1271.02693,396.84375 1270.82246,396.71875 1270.54496,396.71875 C1269.98996,396.71875 1269.56641,397.1875 1269.56641,397.828125 C1269.56641,398.46875 1269.98996,398.9375 1270.54496,398.9375 C1270.82246,398.9375 1271.02693,398.828125 1271.17298,398.625 L1271.17298,398.890625 Z M1273.77271,398.25 C1273.77271,397.875 1273.50981,397.6875 1273.08626,397.625 L1272.88179,397.59375 C1272.69192,397.5625 1272.54587,397.515625 1272.54587,397.375 C1272.54587,397.234375 1272.67732,397.140625 1272.911,397.140625 C1273.17389,397.140625 1273.40758,397.234375 1273.53902,397.3125 L1273.71429,396.9375 C1273.50981,396.796875 1273.23232,396.71875 1272.911,396.71875 C1272.41442,396.71875 1272.09311,396.984375 1272.09311,397.40625 C1272.09311,397.75 1272.32679,397.953125 1272.77955,398.015625 L1272.96942,398.046875 C1273.21771,398.09375 1273.31995,398.15625 1273.31995,398.265625 C1273.31995,398.4375 1273.15929,398.53125 1272.86718,398.53125 C1272.57508,398.53125 1272.356,398.421875 1272.20995,398.3125 L1272.02008,398.671875 C1272.25377,398.84375 1272.54587,398.9375 1272.86718,398.9375 C1273.43679,398.9375 1273.77271,398.65625 1273.77271,398.25 Z M1275.67138,398.78125 L1275.55454,398.390625 C1275.4231,398.46875 1275.29165,398.5 1275.17481,398.5 C1274.95573,398.5 1274.89731,398.359375 1274.89731,398.15625 L1274.89731,397.203125 L1275.59836,397.203125 L1275.59836,396.78125 L1274.89731,396.78125 L1274.89731,396.140625 L1274.45915,396.140625 L1274.45915,396.78125 L1274.05021,396.78125 L1274.05021,397.203125 L1274.45915,397.203125 L1274.45915,398.15625 C1274.45915,398.640625 1274.63441,398.9375 1275.1456,398.9375 C1275.32086,398.9375 1275.53994,398.875 1275.67138,398.78125 Z M1276.92743,396.71875 C1276.35783,396.71875 1275.94888,397.171875 1275.94888,397.828125 C1275.94888,398.5 1276.37243,398.9375 1276.95664,398.9375 C1277.24875,398.9375 1277.52625,398.859375 1277.75993,398.640625 L1277.55546,398.296875 C1277.3948,398.4375 1277.17572,398.53125 1276.98585,398.53125 C1276.70835,398.53125 1276.46007,398.390625 1276.38704,398.015625 L1277.86216,398.015625 L1277.86216,397.828125 C1277.86216,397.171875 1277.48243,396.71875 1276.92743,396.71875 Z M1279.24966,396.71875 C1279.00137,396.71875 1278.84071,396.84375 1278.73848,397.03125 L1278.73848,396.78125 L1278.30032,396.78125 L1278.30032,398.890625 L1278.73848,398.890625 L1278.73848,397.703125 C1278.73848,397.359375 1278.86992,397.15625 1279.16203,397.15625 C1279.24966,397.15625 1279.33729,397.171875 1279.42492,397.21875 L1279.55637,396.78125 C1279.45413,396.734375 1279.33729,396.71875 1279.24966,396.71875 Z M1279.68782,397.828125 C1279.68782,398.46875 1280.09676,398.9375 1280.73939,398.9375 C1281.03149,398.9375 1281.23597,398.875 1281.44044,398.6875 L1281.23597,398.3125 C1281.07531,398.4375 1280.91465,398.515625 1280.72478,398.5 C1280.37426,398.5 1280.12597,398.234375 1280.12597,397.828125 C1280.12597,397.421875 1280.37426,397.15625 1280.72478,397.15625 C1280.91465,397.15625 1281.07531,397.21875 1281.23597,397.34375 L1281.44044,396.96875 C1281.23597,396.796875 1281.03149,396.71875 1280.73939,396.71875 C1280.09676,396.71875 1279.68782,397.1875 1279.68782,397.828125 Z M1283.26609,398.890625 L1283.70425,398.890625 L1283.70425,396.78125 L1283.26609,396.78125 L1283.26609,397.03125 C1283.13464,396.84375 1282.93017,396.71875 1282.65267,396.71875 C1282.09767,396.71875 1281.65952,397.1875 1281.65952,397.828125 C1281.65952,398.46875 1282.09767,398.9375 1282.65267,398.9375 C1282.93017,398.9375 1283.13464,398.828125 1283.26609,398.625 L1283.26609,398.890625 Z M1285.20858,396.71875 C1284.96029,396.71875 1284.79964,396.84375 1284.6974,397.03125 L1284.6974,396.78125 L1284.27385,396.78125 L1284.27385,398.890625 L1284.6974,398.890625 L1284.6974,397.703125 C1284.6974,397.359375 1284.84345,397.15625 1285.12095,397.15625 C1285.20858,397.15625 1285.29621,397.171875 1285.38385,397.21875 L1285.51529,396.78125 C1285.42766,396.734375 1285.29621,396.71875 1285.20858,396.71875 Z M1287.25331,398.890625 L1287.67686,398.890625 L1287.67686,395.921875 L1287.25331,395.921875 L1287.25331,397.03125 C1287.12186,396.84375 1286.91739,396.71875 1286.62529,396.71875 C1286.08489,396.71875 1285.64674,397.1875 1285.64674,397.828125 C1285.64674,398.46875 1286.08489,398.9375 1286.62529,398.9375 C1286.91739,398.9375 1287.12186,398.828125 1287.25331,398.625 L1287.25331,398.890625 Z M1288.39252,398.578125 C1288.37791,398.578125 1288.3487,398.59375 1288.31949,398.59375 C1288.29028,398.609375 1288.27568,398.625 1288.26107,398.640625 C1288.23186,398.65625 1288.21725,398.6875 1288.21725,398.703125 C1288.20265,398.734375 1288.20265,398.765625 1288.20265,398.796875 C1288.20265,398.8125 1288.20265,398.84375 1288.21725,398.875 C1288.21725,398.890625 1288.23186,398.921875 1288.26107,398.9375 C1288.27568,398.953125 1288.29028,398.96875 1288.31949,398.984375 C1288.3487,399 1288.37791,399 1288.39252,399 C1288.42173,399 1288.45094,399 1288.48015,398.984375 C1288.49475,398.96875 1288.52396,398.953125 1288.53857,398.9375 C1288.55317,398.921875 1288.56778,398.890625 1288.58238,398.875 C1288.59699,398.84375 1288.59699,398.8125 1288.59699,398.796875 C1288.59699,398.765625 1288.59699,398.734375 1288.58238,398.703125 C1288.56778,398.6875 1288.55317,398.65625 1288.53857,398.640625 C1288.52396,398.625 1288.49475,398.609375 1288.48015,398.59375 C1288.45094,398.59375 1288.42173,398.578125 1288.39252,398.578125 Z M1293.65039,379 L1293.65039,399 C1293.65039,400.09375 1292.80329,401 1291.78092,401 L1261.86947,401 C1260.8471,401 1260,400.09375 1260,399 L1260,379 C1260,377.90625 1260.8471,377 1261.86947,377 L1291.78092,377 C1292.80329,377 1293.65039,377.90625 1293.65039,379 Z" id=""></path>
        </g>
    </g>
</svg>