<?xml version="1.0" encoding="UTF-8"?>
<svg width="109px" height="57px" viewBox="0 0 109 57" version="1.1" xmlns="http://www.w3.org/2000/svg" xmlns:xlink="http://www.w3.org/1999/xlink">
    <!-- Generator: Sketch 45.2 (43514) - http://www.bohemiancoding.com/sketch -->
    <title>Developer</title>
    <desc>Created with Sketch.</desc>
    <defs></defs>
    <g id="Page-1" stroke="none" stroke-width="1" fill="none" fill-rule="evenodd">
        <g id="Template-Details" transform="translate(-1109.000000, -3236.000000)" fill-rule="nonzero">
            <g id="Group-53" transform="translate(0.000000, 2986.000000)">
                <g id="Group-47-Copy-2" transform="translate(1067.000000, 206.000000)">
                    <g id="Group-46" transform="translate(28.000000, 0.000000)">
                        <g id="Developer" transform="translate(14.000000, 44.000000)">
                            <g id="Group" transform="translate(0.000000, 53.000000)">
                                <path d="M0.4,0.5 L108,0.5 L108,3.3 C108,3.3 108.1,3.7 106.9,3.6 L1.4,3.6 C1.4,3.6 0.4,3.9 0.3,3.2 L0.4,0.5 Z" id="Shape" fill="#FFFFFF"></path>
                                <path d="M1,4 C0.8,4 0.6,4 0.4,3.9 C0.2,3.7 0,3.5 0,3.2 L0,3.2 L0.1,0.1 L108.4,0.1 L108.4,3.2 C108.4,3.3 108.4,3.5 108.3,3.6 C108.1,3.9 107.7,4 106.9,3.9 L1.5,3.9 C1.4,3.9 1.2,4 1,4 Z M0.7,3.1 C0.7,3.2 0.7,3.2 0.7,3.1 C0.8,3.2 1.1,3.2 1.3,3.1 L1.4,3.1 L106.9,3.1 C107.3,3.1 107.5,3.1 107.6,3.1 L107.6,0.8 L0.8,0.8 L0.7,3.1 Z" id="Shape" fill="#FF6C00"></path>
                            </g>
                            <g id="Group" transform="translate(10.000000, 0.000000)">
                                <path d="M87.4,53.5 L87.4,4.5 C87.4,2.3 85.6,0.5 83.4,0.5 L5,0.5 C2.8,0.5 1,2.3 1,4.5 L1,53.5 L87.4,53.5 Z" id="Shape" fill="#FFFFFF"></path>
                                <path d="M87.8,53.9 L0.6,53.9 L0.6,4.4 C0.6,2 2.5,0 5,0 L83.4,0 C85.8,0 87.8,2 87.8,4.4 L87.8,53.9 L87.8,53.9 Z M1.3,53.1 L87,53.1 L87,4.4 C87,2.4 85.3,0.7 83.3,0.7 L5,0.7 C3,0.7 1.3,2.4 1.3,4.4 L1.3,53.1 Z" id="Shape" fill="#FF6C00"></path>
                            </g>
                            <g id="Group" transform="translate(13.000000, 3.000000)">
                                <rect id="Rectangle-path" fill="#FAFAFA" x="0.7" y="0.4" width="80.9" height="47"></rect>
                                <path d="M82,47.8 L0.3,47.8 L0.3,0 L82,0 L82,47.8 Z M1.1,47.1 L81.3,47.1 L81.3,0.8 L1.1,0.8 L1.1,47.1 Z" id="Shape" fill="#FF6C00"></path>
                            </g>
                            <path d="M35.6,28.5 L20.3,28.5 C19.2,28.5 18.3,27.6 18.3,26.5 L18.3,22.3 C18.3,21.2 19.2,20.3 20.3,20.3 L35.6,20.3 C36.7,20.3 37.6,21.2 37.6,22.3 L37.6,26.5 C37.6,27.6 36.7,28.5 35.6,28.5 Z" id="Shape" fill="#F7981D"></path>
                            <rect id="Rectangle-path" fill="#FF6C00" x="18.4" y="44" width="35.6" height="3.3"></rect>
                            <rect id="Rectangle-path" fill="#F4F6F8" x="54.3" y="44" width="35.9" height="3.3"></rect>
                            <rect id="Rectangle-path" fill="#F7981D" x="18.4" y="5.1" width="35.9" height="3"></rect>
                            <rect id="Rectangle-path" fill="#E8EAF1" x="18.4" y="10.3" width="39.3" height="7.4"></rect>
                            <rect id="Rectangle-path" fill="#FF6C00" x="18.4" y="10.3" width="35.9" height="7.4"></rect>
                            <rect id="Rectangle-path" fill="#E8EAF1" x="60.2" y="10.3" width="29.6" height="7.4"></rect>
                            <g id="Group" transform="translate(18.000000, 20.000000)" fill="#F7981D">
                                <g transform="translate(22.000000, 0.000000)" id="Shape">
                                    <path d="M14.3,1.3 L1,1.3 C0.9,1.3 0.8,1.2 0.8,1.1 C0.8,1 0.9,0.9 1,0.9 L14.3,0.9 C14.4,0.9 14.5,1 14.5,1.1 C14.5,1.2 14.4,1.3 14.3,1.3 Z"></path>
                                    <path d="M14.3,4.6 L1,4.6 C0.9,4.6 0.8,4.5 0.8,4.4 C0.8,4.3 0.9,4.2 1,4.2 L14.3,4.2 C14.4,4.2 14.5,4.3 14.5,4.4 C14.5,4.5 14.4,4.6 14.3,4.6 Z"></path>
                                    <path d="M14.3,7.9 L1,7.9 C0.9,7.9 0.8,7.8 0.8,7.7 C0.8,7.6 0.9,7.5 1,7.5 L14.3,7.5 C14.4,7.5 14.5,7.6 14.5,7.7 C14.5,7.9 14.4,7.9 14.3,7.9 Z"></path>
                                </g>
                                <g transform="translate(0.000000, 10.000000)" id="Shape">
                                    <path d="M36.3,1.3 L0.4,1.3 C0.3,1.3 0.2,1.2 0.2,1.1 C0.2,1 0.3,0.9 0.4,0.9 L36.3,0.9 C36.4,0.9 36.5,1 36.5,1.1 C36.5,1.2 36.4,1.3 36.3,1.3 Z"></path>
                                    <path d="M36.3,4.6 L0.4,4.6 C0.3,4.6 0.2,4.5 0.2,4.4 C0.2,4.3 0.3,4.2 0.4,4.2 L36.3,4.2 C36.4,4.2 36.5,4.3 36.5,4.4 C36.5,4.5 36.4,4.6 36.3,4.6 Z"></path>
                                    <path d="M36.3,7.9 L0.4,7.9 C0.3,7.9 0.2,7.8 0.2,7.7 C0.2,7.6 0.3,7.5 0.4,7.5 L36.3,7.5 C36.4,7.5 36.5,7.6 36.5,7.7 C36.5,7.9 36.4,7.9 36.3,7.9 Z"></path>
                                </g>
                            </g>
                            <path d="M46.9,53.5 C46.9,53.5 46.5,54.9 47.9,55 L60.4,55 C60.4,55 61.7,55.2 61.5,53.5 L46.9,53.5 Z" id="Shape" fill="#FF6C00"></path>
                            <g id="Group" transform="translate(54.000000, 30.000000)" fill="#E8EAF1">
                                <path d="M35.9,1.3 L0.3,1.3 C0.2,1.3 0.1,1.2 0.1,1.1 C0.1,1 0.2,0.9 0.3,0.9 L35.9,0.9 C36,0.9 36.1,1 36.1,1.1 C36.1,1.2 36,1.3 35.9,1.3 Z" id="Shape"></path>
                                <path d="M35.9,4.6 L0.3,4.6 C0.2,4.6 0.1,4.5 0.1,4.4 C0.1,4.3 0.2,4.2 0.3,4.2 L35.9,4.2 C36,4.2 36.1,4.3 36.1,4.4 C36.1,4.5 36,4.6 35.9,4.6 Z" id="Shape"></path>
                                <path d="M35.9,7.9 L0.3,7.9 C0.2,7.9 0.1,7.8 0.1,7.7 C0.1,7.6 0.2,7.5 0.3,7.5 L35.9,7.5 C36,7.5 36.1,7.6 36.1,7.7 C36,7.9 36,7.9 35.9,7.9 Z" id="Shape"></path>
                            </g>
                            <g id="Group" transform="translate(54.000000, 20.000000)" fill="#E8EAF1">
                                <path d="M35.7,1.3 L0.3,1.3 C0.2,1.3 0.1,1.2 0.1,1.1 C0.1,1 0.2,0.9 0.3,0.9 L35.7,0.9 C35.8,0.9 35.9,1 35.9,1.1 C35.9,1.2 35.8,1.3 35.7,1.3 Z" id="Shape"></path>
                                <path d="M35.7,4.6 L0.3,4.6 C0.2,4.6 0.1,4.5 0.1,4.4 C0.1,4.3 0.2,4.2 0.3,4.2 L35.7,4.2 C35.8,4.2 35.9,4.3 35.9,4.4 C35.9,4.5 35.8,4.6 35.7,4.6 Z" id="Shape"></path>
                                <path d="M35.7,7.9 L0.3,7.9 C0.2,7.9 0.1,7.8 0.1,7.7 C0.1,7.6 0.2,7.5 0.3,7.5 L35.7,7.5 C35.8,7.5 35.9,7.6 35.9,7.7 C35.9,7.9 35.8,7.9 35.7,7.9 Z" id="Shape"></path>
                            </g>
                        </g>
                    </g>
                </g>
            </g>
        </g>
    </g>
</svg>