<?xml version="1.0" encoding="UTF-8"?>
<svg width="109px" height="60px" viewBox="0 0 109 60" version="1.1" xmlns="http://www.w3.org/2000/svg" xmlns:xlink="http://www.w3.org/1999/xlink">
    <!-- Generator: Sketch 45.2 (43514) - http://www.bohemiancoding.com/sketch -->
    <title>Individual</title>
    <desc>Created with Sketch.</desc>
    <defs></defs>
    <g id="Page-1" stroke="none" stroke-width="1" fill="none" fill-rule="evenodd">
        <g id="Template-Details" transform="translate(-708.000000, -3233.000000)" fill-rule="nonzero">
            <g id="Group-53" transform="translate(0.000000, 2986.000000)">
                <g id="Group-47-Copy" transform="translate(560.000000, 176.000000)">
                    <g id="Group-46" transform="translate(131.000000, 30.000000)">
                        <g id="Individual" transform="translate(17.000000, 41.000000)">
                            <g id="Group" transform="translate(0.000000, 3.000000)">
                                <g transform="translate(0.000000, 53.000000)" id="Shape">
                                    <path d="M0.4,0.5 L108,0.5 L108,3.3 C108,3.3 108.1,3.7 106.9,3.6 L1.4,3.6 C1.4,3.6 0.4,3.9 0.3,3.2 L0.4,0.5 Z" fill="#FFFFFF"></path>
                                    <path d="M1,4 C0.8,4 0.6,4 0.4,3.9 C0.2,3.7 0,3.5 0,3.3 L0,3.3 L0.1,0.2 L108.4,0.2 L108.4,3.3 C108.4,3.4 108.4,3.6 108.3,3.7 C108.1,4 107.7,4.1 106.9,4 L1.5,4 C1.4,4 1.2,4 1,4 Z M0.7,3.1 C0.7,3.2 0.7,3.2 0.7,3.1 C0.8,3.2 1.1,3.2 1.3,3.1 L1.4,3.1 L106.9,3.1 C107.3,3.1 107.5,3.1 107.6,3.1 L107.6,0.8 L0.8,0.8 L0.7,3.1 Z" fill="#B8BDCC"></path>
                                </g>
                                <g transform="translate(10.000000, 0.000000)" id="Shape">
                                    <path d="M87.4,53.5 L87.4,4.5 C87.4,2.3 85.6,0.5 83.4,0.5 L5,0.5 C2.8,0.5 1,2.3 1,4.5 L1,53.5 L87.4,53.5 Z" fill="#FFFFFF"></path>
                                    <path d="M87.8,53.9 L0.6,53.9 L0.6,4.5 C0.6,2.1 2.6,0.1 5,0.1 L83.4,0.1 C85.8,0.1 87.8,2.1 87.8,4.5 L87.8,53.9 Z M1.3,53.1 L87,53.1 L87,4.5 C87,2.5 85.3,0.8 83.3,0.8 L5,0.8 C3,0.8 1.3,2.5 1.3,4.5 L1.3,53.1 Z" fill="#B8BDCC"></path>
                                </g>
                                <g transform="translate(13.000000, 3.000000)">
                                    <rect id="Rectangle-path" fill="#FFFFFF" x="0.7" y="0.4" width="80.9" height="47"></rect>
                                    <path d="M82,47.9 L0.3,47.9 L0.3,0.1 L82,0.1 L82,47.9 Z M1.1,47.1 L81.3,47.1 L81.3,0.8 L1.1,0.8 L1.1,47.1 Z" id="Shape" fill="#B8BDCC"></path>
                                </g>
                                <rect id="Rectangle-path" fill="#E8EAF1" x="61.7" y="9.3" width="28.2" height="7.8"></rect>
                                <rect id="Rectangle-path" fill="#E8EAF1" x="61.7" y="19.3" width="28.2" height="7.8"></rect>
                                <rect id="Rectangle-path" fill="#E8EAF1" x="18.4" y="43.3" width="71.5" height="4.1"></rect>
                                <path d="M46.9,53.6 C46.9,53.6 46.5,55 47.9,55.1 L60.4,55.1 C60.4,55.1 61.7,55.3 61.5,53.6 L46.9,53.6 Z" id="Shape" fill="#B8BDCC"></path>
                                <g transform="translate(61.000000, 30.000000)" id="Shape" fill="#E8EAF1">
                                    <path d="M28.9,0.6 L0.7,0.6 C0.6,0.6 0.5,0.5 0.5,0.4 C0.5,0.3 0.6,0.2 0.7,0.2 L28.8,0.2 C28.9,0.2 29,0.3 29,0.4 C29,0.5 29,0.6 28.9,0.6 Z"></path>
                                    <path d="M28.9,3.9 L0.7,3.9 C0.6,3.9 0.5,3.8 0.5,3.7 C0.5,3.6 0.6,3.5 0.7,3.5 L28.9,3.5 C29,3.5 29.1,3.6 29.1,3.7 C29.1,3.8 29,3.9 28.9,3.9 Z"></path>
                                    <path d="M28.9,7.2 L0.7,7.2 C0.6,7.2 0.5,7.1 0.5,7 C0.5,6.9 0.6,6.8 0.7,6.8 L28.9,6.8 C29,6.8 29.1,6.9 29.1,7 C29.1,7.1 29,7.2 28.9,7.2 Z"></path>
                                    <path d="M28.9,10.6 L0.7,10.6 C0.6,10.6 0.5,10.5 0.5,10.4 C0.5,10.3 0.6,10.2 0.7,10.2 L28.9,10.2 C29,10.2 29.1,10.3 29.1,10.4 C29.1,10.5 29,10.6 28.9,10.6 Z"></path>
                                </g>
                            </g>
                            <g id="Group" transform="translate(6.000000, 0.000000)">
                                <rect id="Rectangle-path" fill="#E8EAF1" x="5" y="3.4" width="42.6" height="33.7"></rect>
                                <g>
                                    <rect id="Rectangle-path" fill="#FFFFFF" x="0.9" y="0.4" width="43.6" height="33.7"></rect>
                                    <path d="M44.8,34.5 L0.5,34.5 L0.5,0 L44.8,0 L44.8,34.5 Z M1.3,33.7 L44.1,33.7 L44.1,0.7 L1.3,0.7 L1.3,33.7 Z" id="Shape" fill="#B8BDCC"></path>
                                </g>
                                <path d="M33.4,26.4 C32.9,26.1 32.3,25.8 31.7,25.6 L31.1,25.4 L31.1,25.4 L26.1,23.8 C25.7,23.7 25.5,23.4 25.4,23 C25.2,22 25.2,19.4 25.2,19 C25.2,19 25.2,18.9 25.1,18.9 L25,18.9 L20,18.9 L19.8,18.9 C19.8,18.9 19.7,18.9 19.7,19 C19.7,19.4 19.7,21.9 19.5,23 C19.4,23.4 19.2,23.7 18.8,23.8 L13.8,25.4 L13.8,25.4 L13.1,25.6 C12.6,25.7 12.1,25.9 11.7,26.2 C9.4,27.7 9.4,30.1 9.3,30.6 C9.3,30.6 9.3,30.7 9.4,30.7 L22.5,30.7 L35.6,30.7 C35.6,30.7 35.7,30.7 35.7,30.6 C35.6,30.3 35.6,27.9 33.4,26.4 Z" id="Shape" fill="#F8BC91"></path>
                                <path d="M33.4,26.4 C32.9,26.1 32.3,25.8 31.7,25.6 L31.1,25.4 L31.1,25.4 L26.9,24 C25.6,24.5 24.1,24.8 22.5,24.8 C20.9,24.8 19.5,24.5 18.1,24 L13.8,25.4 L13.8,25.4 L13.1,25.6 C12.6,25.7 12.1,25.9 11.7,26.2 C9.4,27.7 9.4,30.1 9.3,30.6 C9.3,30.6 9.3,30.7 9.4,30.7 L22.5,30.7 L35.6,30.7 C35.6,30.7 35.7,30.7 35.7,30.6 C35.6,30.3 35.6,27.9 33.4,26.4 Z" id="Shape" fill="#ADD7F2"></path>
                                <path d="M25.4,22.1 C25.4,20.9 25.3,19.8 25.3,19.5 C25.3,19.5 25.3,19.4 25.2,19.4 L19.8,19.4 C19.8,19.4 19.7,19.4 19.7,19.5 C19.7,19.8 19.7,20.9 19.6,22.1 C20,22.5 21.4,23.1 22.4,23.1 C23.4,23.1 24.9,22.4 25.4,22.1 Z" id="Shape" fill="#D19066"></path>
                                <g transform="translate(14.000000, 12.000000)" id="Shape" fill="#F8BC91">
                                    <path d="M3.4,1.7 C3.8,2.7 3.5,4.3 2.9,4.7 C2.2,5 1.4,3.9 1,2.9 C0.6,1.9 0.9,0.8 1.5,0.5 C2.2,0.1 3,0.7 3.4,1.7 Z"></path>
                                    <path d="M13.6,1.7 C13.2,2.7 13.5,4.3 14.1,4.7 C14.8,5 15.6,3.9 16,2.9 C16.4,1.9 16.1,0.8 15.5,0.5 C14.9,0.1 14,0.7 13.6,1.7 Z"></path>
                                </g>
                                <path d="M22.4,4.5 C15.9,4.3 15.8,10.5 15.9,12.5 C16,14 16.3,16.1 16.6,17.2 C16.8,17.8 17.1,18.8 17.6,19.3 C18.9,20.5 20.4,21.6 21.4,21.9 C21.6,22 22,22 22.4,22 C22.8,22 23.2,22 23.4,21.9 C24.4,21.5 25.9,20.5 27.2,19.3 C27.7,18.9 28,17.8 28.2,17.2 C28.5,16.1 28.9,14 28.9,12.5 C29,10.5 28.9,4.3 22.4,4.5 Z" id="Shape" fill="#F8BC91"></path>
                                <g transform="translate(18.000000, 12.000000)" id="Oval" fill="#332113">
                                    <ellipse cx="1.2" cy="1.4" rx="1" ry="1"></ellipse>
                                    <ellipse cx="7.7" cy="1.4" rx="1" ry="1"></ellipse>
                                </g>
                                <path d="M19.9,17.5 C20.3,18.4 21.6,19 22.5,19 C23.4,19 24.5,18.7 25.4,17.3 L19.9,17.5 Z" id="Shape" fill="#FFFFFF"></path>
                                <path d="M28.6,7.2 C28.6,7.1 28.6,7 28.5,6.9 C28.2,6.5 27.9,6.1 27.6,5.8 C27.6,5.4 23,3.6 22.1,3.6 C21.2,3.7 19.1,4.6 18.8,4.9 C17.9,5.4 17.1,6 16.7,6.8 C16.6,6.9 16.6,7 16.6,7.1 C15.9,8.5 16,10.1 16,11.3 C16,12.1 16.3,14.2 16.6,14.9 C16.8,13.9 16.7,11.4 17,10.3 C17.2,9.5 17.4,8.8 17.7,8 C19.3,6.3 26,6.4 27.7,8 C28,8.7 28.3,9.5 28.4,10.3 C28.6,11.4 28.6,13.8 28.8,14.9 C29,14.2 29.3,12.1 29.4,11.3 C29.2,10.2 29.3,8.6 28.6,7.2 Z" id="Shape" fill="#AA551B"></path>
                                <g transform="translate(33.000000, 6.000000)" id="Shape" fill="#000000">
                                    <path d="M0.4,3.7 L0.4,0.8 C0.4,0.7 0.4,0.7 0.5,0.7 C0.6,0.7 0.6,0.7 0.7,0.7 C0.8,0.7 0.8,0.7 0.9,0.7 C1,0.7 1,0.7 1,0.8 L1,1.9 L2,1.9 L2,0.8 C2,0.7 2,0.7 2.1,0.7 C2.2,0.7 2.2,0.7 2.3,0.7 C2.4,0.7 2.4,0.7 2.5,0.7 C2.6,0.7 2.6,0.8 2.6,0.8 L2.6,3.7 C2.6,3.8 2.6,3.8 2.5,3.8 C2.4,3.8 2.4,3.8 2.3,3.8 C2.2,3.8 2.2,3.8 2.1,3.8 C2,3.8 2,3.7 2,3.7 L2,2.4 L1,2.4 L1,3.7 C1,3.8 1,3.8 0.9,3.8 C0.8,3.8 0.8,3.8 0.7,3.8 C0.6,3.8 0.6,3.8 0.5,3.8 C0.4,3.8 0.4,3.7 0.4,3.7 Z"></path>
                                    <path d="M3,1 C3,0.9 3,0.9 3.1,0.8 C3.2,0.8 3.2,0.7 3.3,0.7 C3.4,0.7 3.4,0.7 3.5,0.8 C3.6,0.8 3.6,0.9 3.6,1 C3.6,1.1 3.6,1.1 3.5,1.2 C3.4,1.2 3.4,1.3 3.3,1.3 C3.2,1.3 3.1,1.3 3.1,1.2 C3,1.1 3,1.1 3,1 Z M3,3.7 L3,1.9 C3,1.9 3,1.8 3.1,1.8 C3.1,1.8 3.2,1.8 3.3,1.8 C3.4,1.8 3.4,1.8 3.5,1.8 C3.5,1.8 3.6,1.9 3.6,1.9 L3.6,3.6 C3.6,3.6 3.6,3.7 3.5,3.7 C3.5,3.7 3.4,3.8 3.3,3.8 C3.2,3.8 3.2,3.8 3.1,3.7 C3.1,3.7 3,3.7 3,3.7 Z"></path>
                                    <path d="M4.1,3.8 C4,3.7 4,3.6 4,3.5 C4,3.4 4,3.4 4.1,3.3 C4.2,3.2 4.2,3.2 4.3,3.2 C4.4,3.2 4.4,3.2 4.5,3.3 C4.6,3.4 4.6,3.4 4.6,3.5 C4.6,3.6 4.6,3.6 4.5,3.7 C4.4,3.8 4.4,3.8 4.3,3.8 C4.2,3.9 4.2,3.8 4.1,3.8 Z M4,0.8 C4,0.7 4,0.7 4.1,0.6 C4.1,0.6 4.2,0.5 4.3,0.5 C4.4,0.5 4.4,0.5 4.5,0.6 C4.6,0.6 4.6,0.7 4.6,0.8 C4.6,1 4.6,1.3 4.6,1.8 C4.6,2.2 4.6,2.6 4.6,2.8 C4.6,2.8 4.6,2.9 4.5,2.9 C4.5,2.9 4.4,2.9 4.4,2.9 C4.3,2.9 4.2,2.8 4.2,2.7 C4.2,2.5 4.2,2.2 4.2,1.7 C4,1.3 4,1 4,0.8 Z"></path>
                                </g>
                                <path d="M18.7,4.8 C18.7,4.8 21.8,2.9 24.5,3.3 C24.5,3.3 26.9,4.2 28,3.5 C28,3.5 28.7,3.3 29,4.8 C29,4.8 29.4,7.1 29.2,10.8 C29.2,10.8 28.5,6.8 26.5,5.6 C24.6,4.5 18.7,4.8 18.7,4.8 Z" id="Shape" fill="#AA551B"></path>
                                <path d="M19.2,16 C17.8,16 16.7,14.9 16.7,13.5 C16.7,12.1 17.8,11 19.2,11 C20.6,11 21.7,12.1 21.7,13.5 C21.7,14.9 20.6,16 19.2,16 Z M19.2,11.2 C17.9,11.2 16.9,12.2 16.9,13.5 C16.9,14.8 17.9,15.8 19.2,15.8 C20.5,15.8 21.5,14.8 21.5,13.5 C21.5,12.2 20.5,11.2 19.2,11.2 Z" id="Shape" fill="#332113"></path>
                                <path d="M25.7,15.9 C24.3,15.9 23.2,14.8 23.2,13.4 C23.2,12 24.3,10.9 25.7,10.9 C27.1,10.9 28.2,12 28.2,13.4 C28.2,14.8 27.1,15.9 25.7,15.9 Z M25.7,11.1 C24.4,11.1 23.4,12.1 23.4,13.4 C23.4,14.7 24.4,15.7 25.7,15.7 C27,15.7 28,14.7 28,13.4 C28,12.1 27,11.1 25.7,11.1 Z" id="Shape" fill="#332113"></path>
                                <rect id="Rectangle-path" fill="#332113" x="21.6" y="13.4" width="1.7" height="1"></rect>
                            </g>
                        </g>
                    </g>
                </g>
            </g>
        </g>
    </g>
</svg>