<?xml version="1.0" encoding="UTF-8"?>
<svg width="47px" height="51px" viewBox="0 0 47 51" version="1.1" xmlns="http://www.w3.org/2000/svg" xmlns:xlink="http://www.w3.org/1999/xlink">
    <!-- Generator: Sketch 45.2 (43514) - http://www.bohemiancoding.com/sketch -->
    <title>what's included</title>
    <desc>Created with Sketch.</desc>
    <defs></defs>
    <g id="Page-1" stroke="none" stroke-width="1" fill="none" fill-rule="evenodd">
        <g id="Template-Details" transform="translate(-260.000000, -3212.000000)">
            <g id="Group-13" transform="translate(260.000000, 3213.000000)">
                <g id="what's-included">
                    <g id="Group-54" transform="translate(6.000000, 49.000000)" fill="#51565F">
                        <rect id="Rectangle-8" x="0" y="0" width="16.0069977" height="1" rx="0.5"></rect>
                        <rect id="Rectangle-8-Copy" x="18" y="0" width="6.38458658" height="1" rx="0.5"></rect>
                        <rect id="Rectangle-8-Copy-2" x="26.3775889" y="0" width="5" height="1" rx="0.5"></rect>
                    </g>
                    <g id="Group-55">
                        <path d="M22.9484857,41.9503241 C35.0702996,41.9503241 46.3580755,34.1843815 46.1963559,22.4259027 C46.0346364,10.6674239 35.0702996,1 22.9484857,1 C10.8266718,1 1,10.5927034 1,22.4259027 C1,34.259102 10.8266718,41.9503241 22.9484857,41.9503241 Z" id="Oval-15-Copy" fill="#657178"></path>
                        <ellipse id="Oval-15" fill="#FFF4E1" cx="22" cy="20.5" rx="21" ry="20.5"></ellipse>
                        <path d="M11.0341504,6.48392648 C22.8713891,-1.80767379 35.5158451,4.97424679 35.4562071,4.88949899 C35.3965691,4.8047512 29.4580584,-2.61473398 15.5446634,1.20960237 C1.63126834,5.03393871 1.23946931,20.9226763 0.935994915,21.5932893 C0.632520522,22.2639023 -0.803088263,14.7755267 11.0341504,6.48392648 Z" id="Oval-15" fill="#EAD8C8"></path>
                        <ellipse id="Oval-15" stroke="#51565F" cx="22" cy="20.5" rx="21" ry="20.5"></ellipse>
                        <path d="M20.0624082,26.9887923 L23.0517827,26.9887923 L23.0517827,29.6768001 L20.0624082,29.6768001 L20.0624082,26.9887923 Z M16.8326819,12.1465951 C18.0544759,11.0136631 19.7319139,10.4472056 21.8650461,10.4472056 C23.837943,10.4472056 25.4177391,10.9318175 26.6044816,11.901056 C27.7912242,12.8702944 28.3845866,14.1087472 28.3845866,15.6164514 C28.3845866,16.5296894 28.16677,17.2706072 27.7311303,17.8392271 C27.2954907,18.407847 26.4167135,19.2435334 25.0947724,20.3463114 C24.1333607,21.1475485 23.5099546,21.8260052 23.2245355,22.3817019 C22.9391164,22.9373986 22.796409,23.7580082 22.796409,24.8435553 L20.1224961,24.8435553 C20.1224961,23.6115455 20.2927435,22.6186295 20.6332435,21.8647773 C20.9737435,21.1109252 21.7198278,20.247239 22.8715189,19.2736929 L24.0732775,18.2527668 C24.4338069,17.9598414 24.724229,17.6539974 24.9445525,17.3352257 C25.3451407,16.7752212 25.5454318,16.1936869 25.5454318,15.5906052 C25.5454318,14.7462908 25.2525061,14.0139883 24.6666459,13.3936757 C24.0807856,12.7733631 23.1118774,12.4632114 21.7598922,12.4632114 C20.0874364,12.4632114 18.9307553,12.9973615 18.2898142,14.0656777 C17.9292848,14.6601439 17.7239864,15.5173686 17.6739129,16.6373775 L15,16.6373775 C15,14.7764397 15.6108879,13.2795272 16.8326819,12.1465951 Z" id="?" fill="#64BB21"></path>
                        <path d="M19.8683616,26.6633132 L24.0497201,26.6633132 L24.0497201,30.5239506 L19.8683616,30.5239506 L19.8683616,26.6633132 Z M16.5912464,11.0012842 C17.9909675,9.70336594 19.8979561,9.05939098 22.2867688,9.05939098 C24.4948657,9.05939098 26.2878076,9.6093867 27.6468609,10.7193551 C29.025548,11.8453588 29.7250079,13.3052559 29.7250079,15.0606167 C29.7250079,16.1362353 29.4618203,17.0314857 28.9264903,17.7302266 C28.4343204,18.3726327 27.4776911,19.2823537 26.0440214,20.4783369 C25.0680145,21.2917376 24.4447993,21.9699866 24.178331,22.488787 C23.9170667,22.9974556 23.7779458,23.7974418 23.7779458,24.8803046 L23.7779458,25.3803046 L19.9323085,25.3803046 L19.9323085,24.8803046 C19.9323085,23.5036492 20.1251415,22.3790101 20.5201834,21.5044045 C20.9188727,20.6217238 21.7576587,19.6507238 23.0341599,18.5716752 L24.3215242,17.4781823 C24.6699656,17.1950783 24.9465274,16.9038306 25.1573819,16.5988739 C25.5250035,16.0849553 25.7035166,15.5666521 25.7035166,15.0331106 C25.7035166,14.2626161 25.4408699,13.6060098 24.9047894,13.0384043 C24.3901028,12.4934509 23.4885781,12.204869 22.1748617,12.204869 C20.5576536,12.204869 19.4932984,12.6963834 18.9094482,13.6695296 C18.5756052,14.2199934 18.3758368,15.0541278 18.3259732,16.1694405 L18.3046176,16.6471088 L14.480835,16.6471088 L14.480835,16.1471088 C14.480835,14.0316105 15.1855773,12.304718 16.5912464,11.0012842 Z" id="?" stroke="#596068"></path>
                    </g>
                </g>
            </g>
        </g>
    </g>
</svg>