<?xml version="1.0" encoding="UTF-8"?>
<svg width="34px" height="24px" viewBox="0 0 34 24" version="1.1" xmlns="http://www.w3.org/2000/svg" xmlns:xlink="http://www.w3.org/1999/xlink">
    <!-- Generator: Sketch 45.2 (43514) - http://www.bohemiancoding.com/sketch -->
    <title></title>
    <desc>Created with Sketch.</desc>
    <defs></defs>
    <g id="Symbols" stroke="none" stroke-width="1" fill="none" fill-rule="evenodd">
        <g id="Footer" transform="translate(-1336.000000, -377.000000)" fill="#A2B0BF">
            <path d="M1364.49475,390.59375 C1364.49475,391.15625 1364.14423,391.5625 1363.70607,391.65625 C1363.64765,391.671875 1363.5162,391.6875 1363.44318,391.6875 L1361.20858,391.6875 L1361.20858,389.5 L1363.44318,389.5 C1363.5162,389.5 1363.64765,389.515625 1363.70607,389.53125 C1364.14423,389.625 1364.49475,390.046875 1364.49475,390.59375 Z M1364.23186,387.265625 C1364.23186,387.8125 1363.88133,388.171875 1363.45778,388.25 C1363.41397,388.265625 1363.31173,388.265625 1363.23871,388.265625 L1361.20858,388.265625 L1361.20858,386.25 L1363.23871,386.25 C1363.31173,386.25 1363.41397,386.265625 1363.45778,386.265625 C1363.88133,386.34375 1364.23186,386.71875 1364.23186,387.265625 Z M1346.63259,389.828125 L1346.63259,385.015625 L1343.3026,385.015625 L1343.3026,389.828125 C1343.3026,391 1342.55774,391.875 1341.21406,391.875 C1340.07485,391.875 1338.95025,391.515625 1337.86947,390.953125 L1337.86947,392.703125 C1339.62209,393.21875 1341.84208,393.21875 1341.84208,393.21875 C1345.5518,393.21875 1346.63259,391.703125 1346.63259,389.828125 Z M1357.0607,392.703125 L1357.0607,390.9375 C1356.30123,391.359375 1355.33729,391.765625 1354.13966,391.859375 C1352.03651,392.03125 1350.78047,390.9375 1350.78047,389 C1350.78047,387.0625 1352.03651,385.96875 1354.13966,386.140625 C1355.33729,386.234375 1356.28663,386.625 1357.0607,387.046875 L1357.0607,385.296875 C1355.49795,384.875 1354.02282,384.8125 1354.02282,384.8125 C1348.88179,384.5625 1347.42127,386.734375 1347.42127,389 C1347.42127,391.265625 1348.88179,393.4375 1354.02282,393.1875 C1354.02282,393.1875 1355.49795,393.125 1357.0607,392.703125 Z M1367.78092,390.90625 C1367.78092,389.75 1366.81698,389 1365.56093,388.90625 L1365.56093,388.859375 C1366.70014,388.6875 1367.32816,387.890625 1367.32816,386.96875 C1367.32816,385.78125 1366.40804,385.09375 1365.16659,385.03125 C1365.07896,385.03125 1364.9183,385.015625 1364.78686,385.015625 L1358.14149,385.015625 L1358.14149,392.984375 L1365.31264,392.984375 C1366.72935,392.984375 1367.78092,392.171875 1367.78092,390.90625 Z M1369.65039,379 L1369.65039,399 C1369.65039,400.09375 1368.80329,401 1367.78092,401 L1337.86947,401 C1336.8471,401 1336,400.09375 1336,399 L1336,379 C1336,377.90625 1336.8471,377 1337.86947,377 L1367.78092,377 C1368.80329,377 1369.65039,377.90625 1369.65039,379 Z" id=""></path>
        </g>
    </g>
</svg>