<?xml version="1.0" encoding="UTF-8"?>
<svg width="137px" height="29px" viewBox="0 0 137 29" version="1.1" xmlns="http://www.w3.org/2000/svg" xmlns:xlink="http://www.w3.org/1999/xlink">
    <!-- Generator: Sketch 45.1 (43504) - http://www.bohemiancoding.com/sketch -->
    <title>Header-logo</title>
    <desc>Created with Sketch.</desc>
    <defs>
        <polygon id="path-1" points="26.3225948 26.0186916 0 26.0186916 0 13.0215556 0 0.0244196262 26.3225948 0.0244196262 26.3225948 26.0186916"></polygon>
        <polygon id="path-3" points="0 28.7997103 136.776862 28.7997103 136.776862 0 0 0"></polygon>
    </defs>
    <g id="Page-1" stroke="none" stroke-width="1" fill="none" fill-rule="evenodd">
        <g id="Logout-Popup" transform="translate(-230.000000, -20.000000)">
            <g id="Group-5">
                <g id="Group-4">
                    <g id="Header">
                        <g id="Header-logo" transform="translate(230.000000, 20.000000)">
                            <g id="Group-3" transform="translate(0.000000, 2.781019)">
                                <mask id="mask-2" fill="white">
                                    <use xlink:href="#path-1"></use>
                                </mask>
                                <g id="Clip-2"></g>
                                <path d="M0,13.020214 C0,20.1997467 5.89291417,26.0187187 13.1612974,26.0187187 C20.4296806,26.0187187 26.3225948,20.1997467 26.3225948,13.020214 C26.3225948,10.8167561 25.767485,8.73797103 24.7857884,6.9193729 C24.1978643,7.81376542 23.2106986,8.42628879 22.0758683,8.51843832 C22.800519,9.90339159 23.2134331,11.4726439 23.2134331,13.1394664 C23.2134331,18.6874103 18.6604391,23.1837654 13.040978,23.1837654 C7.4242515,23.1837654 2.87125749,18.6874103 2.87125749,13.1394664 C2.87125749,7.59152243 7.4242515,3.09516729 13.040978,3.09516729 C14.9332735,3.09516729 16.7052495,3.6047 18.2229142,4.49367196 C18.3787824,3.38787757 19.051477,2.4447 19.9921557,1.91077477 C18.0014172,0.712830841 15.6633932,0.0244196262 13.1612974,0.0244196262 C5.89291417,0.0244196262 0,5.84339159 0,13.020214 L0,13.020214 Z M12.2971856,12.9416159 C10.558024,14.6572234 9.4396008,14.4946065 8.39227545,13.4592794 C7.96021956,13.0310551 7.62934132,12.5594664 7.43518962,12.1610551 L5.78353293,13.3481579 C6.04331337,13.890214 6.58748503,14.5951579 7.10978044,15.1125505 C9.09778443,17.0747935 11.3318962,17.5247 14.0773653,14.8144196 L20.5718762,8.39918598 L20.4570259,8.28264393 C19.6749501,7.97909252 19.0268663,7.40993364 18.6276248,6.69170935 L12.2971856,12.9416159 Z" id="Fill-1" fill="#020303" mask="url(#mask-2)"></path>
                            </g>
                            <path d="M21.8550275,5.00689065 C23.3234707,5.00689065 24.5129916,6.19941402 24.5129916,7.67380654 C24.5129916,9.14548879 23.3234707,10.3407224 21.8550275,10.3407224 C20.389319,10.3407224 19.199798,9.14548879 19.199798,7.67380654 C19.199798,6.19941402 20.389319,5.00689065 21.8550275,5.00689065 Z" id="Fill-4" fill="#F7981D"></path>
                            <path d="M27.3455555,7.31875981 C27.1844916,4.4534514 24.829787,2.16868505 21.9402082,2.13914299 L21.4143579,3.5205729 C21.5685854,3.50268505 21.7250006,3.49130187 21.8838768,3.49130187 C24.1502561,3.49130187 25.9941503,5.34784393 25.9941503,7.6299 C25.9941503,7.71256355 25.9864936,7.79332991 25.9818449,7.87490935 L27.3455555,7.31875981 Z" id="Fill-6" fill="#F7981D"></path>
                            <path d="M22.2535854,1.31592243 C25.339777,1.49669813 27.8358569,3.92538037 28.1415774,6.99423084 L29.4519647,6.46003458 C28.9321303,3.06134299 26.1831064,0.391174766 22.7545515,8.13084112e-05 L22.2535854,1.31592243 Z" id="Fill-8" fill="#F7981D"></path>
                            <path d="M36.1880715,8.59939439 L37.9206703,8.59939439 L37.9206703,17.4010299 C37.9206703,20.8943103 36.1880715,21.9675813 33.9039178,21.9675813 C33.2541932,21.9675813 32.4863369,21.8309832 32.0728758,21.655628 L32.3091393,20.2698617 C32.6635345,20.4061888 33.1754387,20.5232729 33.7660974,20.5232729 C35.3020834,20.5232729 36.1880715,19.8405533 36.1880715,17.2644318 L36.1880715,8.59939439 Z" id="Fill-10" fill="#231F20"></path>
                            <path d="M44.6737858,20.6794664 C46.3279036,20.6794664 47.5682868,19.1381299 47.5682868,16.9913168 C47.5682868,15.3908963 46.7610533,13.3806813 44.7131631,13.3806813 C42.6852349,13.3806813 41.7989735,15.2542981 41.7989735,17.0495879 C41.7989735,19.1183449 42.9805643,20.6794664 44.6540972,20.6794664 L44.6737858,20.6794664 Z M44.5950313,21.9676626 C42.0355104,21.9676626 40.0269974,20.0940458 40.0269974,17.1081299 C40.0269974,13.9465879 42.13368,12.0927561 44.7525403,12.0927561 C47.4895323,12.0927561 49.3405363,14.063672 49.3405363,16.9325037 C49.3405363,20.4455692 46.879185,21.9676626 44.61472,21.9676626 L44.5950313,21.9676626 Z" id="Fill-12" fill="#231F20"></path>
                            <path d="M55.482785,20.6794664 C57.1369028,20.6794664 58.377286,19.1381299 58.377286,16.9913168 C58.377286,15.3908963 57.5700525,13.3806813 55.5221623,13.3806813 C53.4942341,13.3806813 52.6079727,15.2542981 52.6079727,17.0495879 C52.6079727,19.1183449 53.7895635,20.6794664 55.4630964,20.6794664 L55.482785,20.6794664 Z M55.4040305,21.9676626 C52.8445096,21.9676626 50.8359966,20.0940458 50.8359966,17.1081299 C50.8359966,13.9465879 52.9426792,12.0927561 55.5615395,12.0927561 C58.2985315,12.0927561 60.1495355,14.063672 60.1495355,16.9325037 C60.1495355,20.4455692 57.6881842,21.9676626 55.4237192,21.9676626 L55.4040305,21.9676626 Z" id="Fill-14" fill="#231F20"></path>
                            <path d="M62.3340703,14.8639907 C62.3340703,13.8687757 62.294693,13.0879439 62.2553158,12.3073832 L63.7713397,12.3073832 L63.8500942,13.8297477 L63.9094335,13.8297477 C64.4410263,12.9318318 65.3270144,12.092729 66.9217928,12.092729 C68.2018267,12.092729 69.1862579,12.8732897 69.599719,13.9855888 L69.6390962,13.9855888 C69.9344255,13.4391963 70.3284715,13.0489159 70.7219705,12.7562056 C71.293214,12.3268972 71.9035613,12.092729 72.8092379,12.092729 C74.0892719,12.092729 75.9599645,12.9123178 75.9599645,16.1909439 L75.9599645,21.7529813 L74.2664695,21.7529813 L74.2664695,16.4055981 C74.2664695,14.5712804 73.5773677,13.4977383 72.1988906,13.4977383 C71.1947709,13.4977383 70.4466032,14.220028 70.1313118,15.0396168 C70.0528307,15.2932991 69.9934914,15.6055234 69.9934914,15.8982336 L69.9934914,21.7529813 L68.3002699,21.7529813 L68.3002699,16.0738598 C68.3002699,14.5712804 67.6308567,13.4977383 66.3114455,13.4977383 C65.2482599,13.4977383 64.4410263,14.3563551 64.1653856,15.215243 C64.0666691,15.4689252 64.0275653,15.7616355 64.0275653,16.0543458 L64.0275653,21.7529813 L62.3340703,21.7529813 L62.3340703,14.8639907 Z" id="Fill-16" fill="#231F20"></path>
                            <mask id="mask-4" fill="white">
                                <use xlink:href="#path-3"></use>
                            </mask>
                            <g id="Clip-19"></g>
                            <polygon id="Fill-18" fill="#231F20" mask="url(#mask-4)" points="78.754491 21.7532523 80.4870898 21.7532523 80.4870898 7.89694393 78.754491 7.89694393"></polygon>
                            <path d="M88.4217415,16.932585 C86.5313603,16.893557 84.3853004,17.2252953 84.3853004,19.0596131 C84.3853004,20.1916972 85.1334681,20.6990617 86.0000409,20.6990617 C87.2598393,20.6990617 88.0673463,19.9185009 88.342987,19.1184262 C88.4020529,18.9428 88.4217415,18.7476598 88.4217415,18.5720336 L88.4217415,16.932585 Z M90.1149631,19.4891925 C90.1149631,20.3090523 90.1546138,21.1091271 90.2527834,21.7530897 L88.6973822,21.7530897 L88.5401467,20.5624636 L88.4808074,20.5624636 C87.9689032,21.3039963 86.9251327,21.9677439 85.5668912,21.9677439 C83.6371327,21.9677439 82.6521547,20.6212766 82.6521547,19.2550243 C82.6521547,16.9716131 84.7003184,15.7227159 88.3823643,15.7422299 L88.3823643,15.5470897 C88.3823643,14.7662579 88.165516,13.3417346 86.2163423,13.3612486 C85.3106657,13.3612486 84.3853004,13.6149308 83.7156138,14.0637533 L83.3221148,12.9124262 C84.1093862,12.4245757 85.2712884,12.0928374 86.4722944,12.0928374 C89.4064461,12.0928374 90.1149631,14.0637533 90.1149631,15.9568841 L90.1149631,19.4891925 Z" id="Fill-20" fill="#231F20" mask="url(#mask-4)"></path>
                            <path d="M92.7328936,19.6842785 C93.5010234,20.152886 94.6035862,20.5233813 95.7849036,20.5233813 C97.537191,20.5233813 98.5609994,19.6257364 98.5609994,18.2987832 C98.5609994,17.0694 97.8524824,16.3471103 96.0605443,15.6836336 C93.8947958,14.9418299 92.5559695,13.8100168 92.5559695,11.9756991 C92.5559695,9.92645607 94.2686062,8.40409159 96.8483627,8.40409159 C98.187189,8.40409159 99.1913088,8.71658692 99.7622788,9.02881121 L99.2900253,10.4338206 C98.8762908,10.1801383 97.9903028,9.80937196 96.7890234,9.80937196 C94.9776701,9.80937196 94.2882948,10.882643 94.2882948,11.7802879 C94.2882948,12.990428 95.0960752,13.5953626 96.9268437,14.2978673 C99.1716202,15.1762692 100.293872,16.2300262 100.293872,18.162185 C100.293872,20.1724 98.7978098,21.9484467 95.6667719,21.9484467 C94.3870114,21.9484467 92.9891192,21.5576243 92.2803287,21.0895589 L92.7328936,19.6842785 Z" id="Fill-21" fill="#231F20" mask="url(#mask-4)"></path>
                            <path d="M102.596702,7.89680841 L104.329574,7.89680841 L104.329574,13.7905841 L104.368678,13.7905841 C104.644592,13.3027336 105.077742,12.8539112 105.609608,12.580715 C106.121513,12.2682196 106.73186,12.0925935 107.381584,12.0925935 C108.661618,12.0925935 110.709235,12.8734252 110.709235,16.1325374 L110.709235,21.7531168 L108.976363,21.7531168 L108.976363,16.3081636 C108.976363,14.7857991 108.405393,13.5173879 106.771237,13.5173879 C105.648986,13.5173879 104.782413,14.2979486 104.44798,15.2346215 C104.349263,15.4687897 104.329574,15.722743 104.329574,16.0544813 L104.329574,21.7531168 L102.596702,21.7531168 L102.596702,7.89680841 Z" id="Fill-22" fill="#231F20" mask="url(#mask-4)"></path>
                            <path d="M113.524052,21.7529813 L115.256651,21.7529813 L115.256651,12.3073832 L113.524052,12.3073832 L113.524052,21.7529813 Z M114.350974,10.7072336 C113.720938,10.7072336 113.307204,10.2191121 113.307204,9.65320561 C113.307204,9.04827103 113.740353,8.57993458 114.390351,8.57993458 C115.020661,8.57993458 115.45381,9.04827103 115.45381,9.65320561 C115.45381,10.2191121 115.040076,10.7072336 114.370663,10.7072336 L114.350974,10.7072336 Z" id="Fill-23" fill="#231F20" mask="url(#mask-4)"></path>
                            <path d="M118.130916,14.8639907 C118.130916,13.8687757 118.111501,13.0879439 118.052162,12.3073832 L119.588148,12.3073832 L119.686317,13.8489907 L119.725968,13.8489907 C120.198495,12.9708598 121.301058,12.092729 122.876421,12.092729 C124.195832,12.092729 126.243449,12.8732897 126.243449,16.1128879 L126.243449,21.7529813 L124.510577,21.7529813 L124.510577,16.308028 C124.510577,14.7859346 123.939607,13.4977383 122.305451,13.4977383 C121.182926,13.4977383 120.296938,14.2980841 119.98192,15.254271 C119.902892,15.4689252 119.863788,15.7811495 119.863788,16.0543458 L119.863788,21.7529813 L118.130916,21.7529813 L118.130916,14.8639907 Z" id="Fill-24" fill="#231F20" mask="url(#mask-4)"></path>
                            <path d="M135.102919,16.1129963 C135.122608,15.0199402 134.650081,13.3222206 132.720322,13.3222206 C130.948346,13.3222206 130.199905,14.9223701 130.062085,16.1129963 L135.102919,16.1129963 Z M130.042396,17.3423794 C130.082047,19.6450336 131.558694,20.6017626 133.291292,20.6017626 C134.531949,20.6017626 135.300079,20.3868374 135.929841,20.1136411 L136.244859,21.3432953 C135.634512,21.6164916 134.571326,21.9482299 133.055302,21.9482299 C130.140839,21.9482299 128.368863,20.016071 128.368863,17.1862673 C128.368863,14.3369495 130.082047,12.0928374 132.858143,12.0928374 C135.969219,12.0928374 136.776726,14.805286 136.776726,16.5423047 C136.776726,16.893557 136.757037,17.1472393 136.717386,17.3423794 L130.042396,17.3423794 Z" id="Fill-25" fill="#231F20" mask="url(#mask-4)"></path>
                        </g>
                    </g>
                </g>
            </g>
        </g>
    </g>
</svg>