<?xml version="1.0" encoding="UTF-8"?>
<svg width="34px" height="24px" viewBox="0 0 34 24" version="1.1" xmlns="http://www.w3.org/2000/svg" xmlns:xlink="http://www.w3.org/1999/xlink">
    <!-- Generator: Sketch 45.2 (43514) - http://www.bohemiancoding.com/sketch -->
    <title></title>
    <desc>Created with Sketch.</desc>
    <defs></defs>
    <g id="Symbols" stroke="none" stroke-width="1" fill="none" fill-rule="evenodd">
        <g id="Footer" transform="translate(-1298.000000, -377.000000)" fill="#455566">
            <path d="M1308.88088,389.15625 C1308.88088,389.921875 1308.31127,390.5 1307.59562,390.5 C1307.05523,390.5 1306.66089,390.171875 1306.66089,389.5625 C1306.66089,388.796875 1307.21588,388.1875 1307.93154,388.1875 C1308.47193,388.1875 1308.88088,388.546875 1308.88088,389.15625 Z M1320.34596,386.828125 C1320.34596,387.765625 1319.82018,387.953125 1319.0607,387.953125 L1318.59334,387.96875 L1318.84163,386.296875 C1318.85623,386.1875 1318.92926,386.125 1319.03149,386.125 L1319.29439,386.125 C1319.79096,386.125 1320.34596,386.15625 1320.34596,386.828125 Z M1325.47239,389.15625 C1325.47239,389.921875 1324.90279,390.5 1324.20174,390.5 C1323.66134,390.5 1323.2524,390.171875 1323.2524,389.5625 C1323.2524,388.796875 1323.8074,388.1875 1324.52305,388.1875 C1325.06344,388.1875 1325.47239,388.546875 1325.47239,389.15625 Z M1305.49247,386.484375 C1305.49247,385.171875 1304.54313,384.734375 1303.46235,384.734375 L1301.12551,384.734375 C1300.97946,384.734375 1300.83341,384.859375 1300.8188,385.03125 L1299.86947,391.40625 C1299.85486,391.53125 1299.94249,391.65625 1300.05933,391.65625 L1301.16933,391.65625 C1301.32999,391.65625 1301.47604,391.53125 1301.49064,391.359375 L1301.75354,389.640625 C1301.81196,389.1875 1302.52761,389.34375 1302.80511,389.34375 C1304.47011,389.34375 1305.49247,388.28125 1305.49247,386.484375 Z M1310.00548,391.359375 L1310.60429,387.28125 C1310.6189,387.15625 1310.53127,387.03125 1310.41442,387.03125 L1309.30443,387.03125 C1309.08535,387.03125 1309.07074,387.375 1309.05614,387.546875 C1308.72022,387.015625 1308.22364,386.921875 1307.66865,386.921875 C1306.23734,386.921875 1305.14194,388.265625 1305.14194,389.75 C1305.14194,390.96875 1305.8576,391.765625 1306.99681,391.765625 C1307.52259,391.765625 1308.17983,391.515625 1308.54496,391.078125 C1308.51575,391.171875 1308.48654,391.3125 1308.48654,391.40625 C1308.48654,391.546875 1308.54496,391.65625 1308.6764,391.65625 L1309.68416,391.65625 C1309.84482,391.65625 1309.97627,391.53125 1310.00548,391.359375 Z M1316.534,387.25 C1316.534,387.140625 1316.44637,387.03125 1316.34414,387.03125 L1315.21954,387.03125 C1315.1173,387.03125 1315.01506,387.09375 1314.95664,387.1875 L1313.40849,389.625 L1312.76586,387.28125 C1312.72205,387.140625 1312.5906,387.03125 1312.44455,387.03125 L1311.34916,387.03125 C1311.24692,387.03125 1311.15929,387.140625 1311.15929,387.25 C1311.15929,387.328125 1312.29849,390.859375 1312.40073,391.1875 C1312.24007,391.421875 1311.2031,392.875 1311.2031,393.0625 C1311.2031,393.171875 1311.29074,393.265625 1311.39297,393.265625 L1312.51757,393.265625 C1312.61981,393.265625 1312.72205,393.203125 1312.78047,393.109375 L1316.50479,387.359375 C1316.534,387.328125 1316.534,387.296875 1316.534,387.25 Z M1322.08398,386.484375 C1322.08398,385.171875 1321.13464,384.734375 1320.05386,384.734375 L1317.73163,384.734375 C1317.57097,384.734375 1317.42492,384.859375 1317.41032,385.03125 L1316.46098,391.40625 C1316.44637,391.53125 1316.534,391.65625 1316.65085,391.65625 L1317.84847,391.65625 C1317.96531,391.65625 1318.05295,391.5625 1318.08216,391.453125 L1318.34505,389.640625 C1318.40347,389.1875 1319.11913,389.34375 1319.39662,389.34375 C1321.06162,389.34375 1322.08398,388.28125 1322.08398,386.484375 Z M1326.59699,391.359375 L1327.1958,387.28125 C1327.21041,387.15625 1327.12278,387.03125 1327.00594,387.03125 L1325.89594,387.03125 C1325.67686,387.03125 1325.66226,387.375 1325.64765,387.546875 C1325.32634,387.015625 1324.82976,386.921875 1324.26016,386.921875 C1322.82885,386.921875 1321.73346,388.265625 1321.73346,389.75 C1321.73346,390.96875 1322.44911,391.765625 1323.58832,391.765625 C1324.12871,391.765625 1324.78594,391.515625 1325.13647,391.078125 C1325.12186,391.171875 1325.07805,391.3125 1325.07805,391.40625 C1325.07805,391.546875 1325.13647,391.65625 1325.26792,391.65625 L1326.27568,391.65625 C1326.43633,391.65625 1326.56778,391.53125 1326.59699,391.359375 Z M1329.78092,384.96875 L1329.78092,384.953125 C1329.78092,384.828125 1329.69329,384.734375 1329.59106,384.734375 L1328.51027,384.734375 C1328.42264,384.734375 1328.33501,384.8125 1328.3204,384.90625 L1327.37107,391.40625 L1327.35646,391.4375 C1327.35646,391.546875 1327.44409,391.65625 1327.56093,391.65625 L1328.52488,391.65625 C1328.67093,391.65625 1328.81698,391.53125 1328.83159,391.359375 L1329.78092,384.96875 Z M1303.72524,387.0625 C1303.6084,387.859375 1303.11182,387.953125 1302.46919,387.953125 L1301.98722,387.96875 L1302.23551,386.296875 C1302.25011,386.1875 1302.33775,386.125 1302.42538,386.125 L1302.70288,386.125 C1303.36011,386.125 1303.85669,386.21875 1303.72524,387.0625 Z M1331.65039,379 L1331.65039,399 C1331.65039,400.09375 1330.80329,401 1329.78092,401 L1299.86947,401 C1298.8471,401 1298,400.09375 1298,399 L1298,379 C1298,377.90625 1298.8471,377 1299.86947,377 L1329.78092,377 C1330.80329,377 1331.65039,377.90625 1331.65039,379 Z" id=""></path>
        </g>
    </g>
</svg>